<svg xmlns="http://www.w3.org/2000/svg" width="216.647" height="154.298" viewBox="0 0 216.647 154.298">
  <g id="GT9Rl2" transform="translate(0)" opacity="0.8">
    <g id="Group_8" data-name="Group 8" transform="translate(0)">
      <path id="Path_103" data-name="Path 103" d="M-3835.148,2768.385v-.906q0-23.528.006-47.056a2.384,2.384,0,0,0-.255-1.4c-.106-.165-.066-.424-.109-.766,2.427-.031,4.771-.011,7.115-.014,2.383,0,4.766,0,7.149,0h14.087c.184-.624.258-33.493.084-34.319-.332-.025-.689-.075-1.047-.075q-5.958-.007-11.915,0h-1.126c-.1-.39-.182-.685-.244-.984a4.7,4.7,0,0,0-4.666-3.743,4.735,4.735,0,0,0-4.744,3.87c-.162.845-.171.849-1.042.855-1.045.006-2.091,0-3.054,0-.1-.116-.118-.137-.135-.159a.205.205,0,0,1-.045-.07,1.747,1.747,0,0,1-.054-.333q0-16.167,0-32.335a1.73,1.73,0,0,1,.039-.335,1.556,1.556,0,0,1,.143-.269h102.372q41.106,0,82.212-.015a2.379,2.379,0,0,1,1.935.787c1.139,1.225,2.337,2.4,3.549,3.55a1.963,1.963,0,0,1,.643,1.565c-.016,10.409,0,20.819-.025,31.229a2.519,2.519,0,0,0,.869,2.069c1.986,1.82,3.9,3.723,5.863,5.564a1.833,1.833,0,0,1,.624,1.48q-.025,15.87-.012,31.74,0,30,.016,59.991a2.426,2.426,0,0,1-.8,1.927c-1.979,1.911-3.886,3.9-5.857,5.815a2.142,2.142,0,0,0-.7,1.722c.038,2.042.014,4.084.011,6.126,0,.2-.028.393-.04.547-.049.056-.066.08-.087.1a.172.172,0,0,1-.068.047,1.259,1.259,0,0,1-.251.039q-94.978,0-189.956,0a3.608,3.608,0,0,1-.419-.058c-.164-1.994.019-4-.1-6.018-.375-.033-.508.266-.708.431a5.285,5.285,0,0,1-8.562-2.821,5.1,5.1,0,0,1-.122-1.179q-.01-11.573,0-23.145a5.14,5.14,0,0,1,4.355-5.1,5.194,5.194,0,0,1,4.483,1.275c.108.092.215.183.325.272A1.817,1.817,0,0,0-3835.148,2768.385Zm57.11-30.782v.01c2.666,0,5.331.007,8,0,1.388,0,2.778-.019,4.166-.068a6.1,6.1,0,0,0,4.206-1.967,8.7,8.7,0,0,0,1.1-10.531,6.857,6.857,0,0,0-6.151-3.438q-11.613.02-23.225,0a6.428,6.428,0,0,0-3.91,1.211,8.115,8.115,0,0,0-3.332,6.659c-.13,3.785,2.521,8.369,7.919,8.155C-3785.53,2737.483-3781.782,2737.6-3778.039,2737.6Zm-48.594-63.116c.759.185,17.708.209,18.577.027.079-.324.162-.667.246-1.012,1.355-.039,2.65.042,3.986-.047.033-.388.073-.665.077-.942.009-.681,0-1.361,0-2.042-.005-1.255-.007-1.256-1.277-1.258-.929,0-1.858,0-2.758,0a46.88,46.88,0,0,1,.013-7.951h3.921a18.619,18.619,0,0,0,0-4.194h-3.962l-.254-1.176h-18.559c-.066.416-.119.743-.189,1.178h-3.7a18.53,18.53,0,0,0,.01,4.232h3.731v1.788h-3.784a23.351,23.351,0,0,0,.057,4.3h3.711v1.821c-1.052,0-2.041-.011-3.029,0-.7.011-.774.083-.791.8-.02.85-.012,1.7,0,2.552,0,.274.049.548.087.937h3.676C-3826.753,2673.909-3826.691,2674.206-3826.632,2674.486Zm70.747,106.175a9.325,9.325,0,0,0-9.327-9.356,9.343,9.343,0,0,0-9.361,9.444,9.259,9.259,0,0,0,9.409,9.239A9.242,9.242,0,0,0-3755.885,2780.661Zm-21.289.048a9.322,9.322,0,0,0-9.363-9.344,9.287,9.287,0,0,0-9.332,9.544,9.371,9.371,0,0,0,9.408,9.146A9.382,9.382,0,0,0-3777.174,2780.709Zm-55.143-36.569h3.819c1.22,0,2.44.012,3.659,0s2.469.071,3.67-.059a20.654,20.654,0,0,0-.1-4.829c-.3-.016-.637-.049-.969-.05-2.667,0-5.333,0-8-.008-.326,0-.651-.054-.951-.081a40.025,40.025,0,0,1,.081-7.076c3.281-.1,6.587.034,9.964-.062V2726.4a85.857,85.857,0,0,0-11.176.016Zm180.33-46.612a21.593,21.593,0,0,0-.022,3.269c.006.124.184.239.282.358.113-.135.282-.254.326-.409a2.561,2.561,0,0,0,.031-.675c0-.49,0-.98,0-1.47a10.546,10.546,0,0,1,1.243,1.978c.22.434.459.794,1.061.586,0,.614-.042,1.152.007,1.682a4.8,4.8,0,0,0,6.05,4.1,4.9,4.9,0,0,0,3.576-5.143,4.891,4.891,0,0,0-3.823-4.7,4.852,4.852,0,0,0-5.418,2.71c-.085.176-.185.344-.278.516-.1-.865-.092-1.684-.115-2.5,0-.128-.167-.251-.256-.376-.117.129-.313.247-.335.39a9.836,9.836,0,0,0-.036,1.1c-.008.263-.031.526-.047.788a13.667,13.667,0,0,1-1.091-1.772C-3651.157,2697.375-3651.165,2697.379-3651.986,2697.528Zm3.264,85.237a4.815,4.815,0,0,0,4.83,4.886,4.877,4.877,0,0,0,4.821-4.752,4.837,4.837,0,0,0-4.816-4.932A4.8,4.8,0,0,0-3648.723,2782.765Zm-142.962-129.119a4.839,4.839,0,0,0-4.817,4.794,4.818,4.818,0,0,0,4.813,4.827,4.765,4.765,0,0,0,4.859-4.865A4.771,4.771,0,0,0-3791.685,2653.646Zm-3.1,138.732a4.805,4.805,0,0,0-4.9,4.816,4.845,4.845,0,0,0,4.82,4.824,4.9,4.9,0,0,0,4.85-4.791A4.866,4.866,0,0,0-3794.787,2792.377Zm-25.721-41.77h-4.151a64.927,64.927,0,0,0,0,9.5h4.148Zm170.473-70.081c0-.082,0-.165,0-.247-.317-.028-.634-.081-.952-.081q-14.123-.032-28.247-.051-32.373.009-64.747.047-4.211,0-8.423,0a5.5,5.5,0,0,0-.765.021,1.853,1.853,0,0,0-.471.252c.2.1.292.189.383.189q51.474.012,102.948.008C-3650.217,2680.666-3650.126,2680.575-3650.036,2680.526ZM-3685.8,2694.8l-.169.05c-.138-.242-.28-.482-.415-.727q-1.779-3.24-3.558-6.48c-.476-.865-.577-.9-1.63-.638a85.263,85.263,0,0,0,.021,10.955h1.116c.032-.375.083-.705.084-1.036.007-2.069,0-4.138,0-6.207,0-.208.027-.415.053-.806.244.416.39.653.523.9q1.78,3.24,3.557,6.481c.46.835.664.9,1.717.532v-3.611c0-1.219.012-2.438,0-3.656-.016-1.2.074-2.409-.06-3.591a3.749,3.749,0,0,0-.457-.073c-.7,0-.765.054-.782.781-.012.481,0,.964,0,1.445Zm20.135,6.478c.138.6.6.631,1.107.621.9-.018,1.811-.023,2.716,0,.517.013.958-.051,1.126-.71h2.2a28.716,28.716,0,0,0-.026-3.454c-.537,0-.982,0-1.428,0-.387,0-.783.069-1.014-.411-.063-.132-.393-.185-.6-.189q-1.612-.027-3.226,0c-.21,0-.548.053-.605.181-.221.494-.622.405-1.008.42-.329.012-.658.034-1.035.054a14.013,14.013,0,0,0,.009,3.4Zm-17.356-8.934a6.612,6.612,0,0,0,1.471,4.508,3.652,3.652,0,0,0,2.823,1.339,3.93,3.93,0,0,0,3.729-2.352,7.885,7.885,0,0,0,.572-5.052,5.332,5.332,0,0,0-1.213-2.67,3.885,3.885,0,0,0-5.849-.159,4.788,4.788,0,0,0-1.226,2.294C-3682.868,2690.939-3682.923,2691.647-3683.021,2692.345Zm-67.624,16.439v-3.456c-.539-.014-1.012-.017-1.485-.043-.249-.014-.625.016-.72-.125-.327-.487-.783-.373-1.218-.38-.765-.012-1.53-.017-2.295-.007-.49.007-1.02-.138-1.38.405-.074.111-.367.092-.561.106a4.371,4.371,0,0,0-.844.042c-.174.049-.416.26-.427.414a13.3,13.3,0,0,0,.032,2.979c.271.044.487.1.706.111.52.032,1.085-.112,1.411.506.049.094.311.1.475.1,1.1.01,2.21.018,3.315,0,.2,0,.525-.072.589-.207.213-.45.585-.377.942-.393C-3751.631,2708.818-3751.158,2708.8-3750.645,2708.784Zm-8.473-21.451c.313.032.585.071.859.085.462.024.979-.133,1.24.465.034.08.255.108.39.109,1.16.009,2.32.016,3.48,0a.656.656,0,0,0,.5-.223c.188-.354.485-.344.8-.349.368-.005.736-.01,1.1-.007a.544.544,0,0,0,.627-.616c0-.679.014-1.358,0-2.037-.012-.847-.072-.885-.929-.923-.62-.028-1.3.2-1.79-.44-.071-.093-.322-.063-.49-.064-1.019,0-2.038,0-3.056.005-.194,0-.488-.016-.565.095-.365.523-.886.385-1.377.412-.246.014-.491.055-.79.091Zm8.685,10.4c-.583,0-1.086.012-1.588-.006-.219-.008-.57-.01-.631-.131-.309-.616-.849-.455-1.332-.465-.821-.017-1.642-.007-2.463,0-.392,0-.781-.046-1.031.405-.075.136-.392.168-.6.192-.385.044-.773.046-1.22.069a18.325,18.325,0,0,0,.009,3.355c.295.035.514.074.734.085.489.026,1.029-.125,1.309.5.044.1.3.14.46.142,1.132.014,2.265.023,3.4,0a.707.707,0,0,0,.551-.27c.16-.4.463-.355.768-.364.528-.014,1.056-.026,1.64-.039Zm55.578-10.791v1.036c0,1.785.013,3.569-.008,5.354a11.854,11.854,0,0,1-.165,1.772,1.8,1.8,0,0,1-1.334,1.595,2.137,2.137,0,0,1-2.93-1.928,6.672,6.672,0,0,1-.043-.933c-.006-1.275-.005-2.549-.008-3.824,0-.793.007-1.586-.012-2.379-.016-.692-.108-.768-.812-.75a3.441,3.441,0,0,0-.45.075,2.52,2.52,0,0,0-.126.568c.036,2.49.017,4.984.149,7.47a3.044,3.044,0,0,0,2.776,3.148c2.111.324,3.811-.686,4.118-2.782a10.045,10.045,0,0,0,.157-1.344c.019-2.125.014-4.249.011-6.374a6.391,6.391,0,0,0-.081-.7Zm-115.038,64.127.184.008.9.991c-.1-.042-.046,0,.005,0,1.526.013,3.053.038,4.579.024.512,0,.618-.135.629-.7.02-1.017.008-2.035-.007-3.053a1.978,1.978,0,0,0-.152-.5h-5.07c-.331.3-.605.523-.837.782a.874.874,0,0,0-.222.5C-3809.91,2749.776-3809.894,2750.424-3809.894,2751.071Zm.039,11.036a9.732,9.732,0,0,0,.78.933.967.967,0,0,0,.582.25c1.417.02,2.835.008,4.253.008.4,0,.649-.163.646-.6-.006-1.077-.006-2.154-.023-3.23a1.364,1.364,0,0,0-.151-.4h-5.038l-1.049.985Zm6.194-4.587a21.069,21.069,0,0,0-.026-4.21h-5.428c.161.675-.427.715-.777.991,0,.609-.012,1.2.007,1.8.006.184.074.511.154.524.521.084.553.591.817.9Zm-17.913-37.926a73.4,73.4,0,0,0-8.992.035c.158,1.744,2.158,3.355,4.248,3.424A4.557,4.557,0,0,0-3821.575,2719.594Zm150.208,55.021h19.645a5.466,5.466,0,0,0,.847-.035.368.368,0,0,0,.238-.272.4.4,0,0,0-.265-.258,2.482,2.482,0,0,0-.592-.028q-19.9,0-39.8,0a2.245,2.245,0,0,0-.59.037c-.1.029-.249.183-.243.272a.384.384,0,0,0,.267.253,5.875,5.875,0,0,0,.848.029Zm-65.955-.282.067.223c.272.02.545.057.817.057q17.7,0,35.4,0a1.81,1.81,0,0,0,.507-.02,1.413,1.413,0,0,0,.372-.259c-.11-.1-.207-.261-.334-.292a2.973,2.973,0,0,0-.677-.025q-17.528,0-35.055,0a3.86,3.86,0,0,0-.762.034C-3737.115,2774.078-3737.212,2774.235-3737.321,2774.332Zm26.45,4.077c.165.586.276.992.393,1.4.171.6.284.668.791.69s.68-.288.786-.707c.152-.6.328-1.2.483-1.8.1-.375.171-.757.255-1.132-.946-.238-1.006-.209-1.212.558-.1.391-.2.783-.3,1.175a5.8,5.8,0,0,1-.531-1.459.469.469,0,0,0-.54-.417c-.217.016-.432.051-.654.078l-.6,1.987-.555-2.062-1.085.049c.342,1.277.653,2.442.954,3.568,1.09.284,1.195.226,1.457-.715C-3711.136,2779.271-3711.027,2778.93-3710.872,2778.409Zm31.214-100.984.975-3.624h-1.09c-.093.33-.167.6-.245.872s-.162.562-.243.843a3.725,3.725,0,0,1-.478-1.21c-.08-.395-.252-.584-.679-.583a.617.617,0,0,0-.71.549c-.1.454-.258.9-.449,1.536l-.511-2.005h-1.128c.35,1.277.673,2.459.991,3.62h1.171c.19-.615.373-1.206.6-1.944l.624,1.946Zm3.483-2.111c-.179-.352-.308-.589-.422-.832-.4-.86-.511-.906-1.552-.586-.037,1.156-.053,2.327.008,3.562l.949-.047c.048-.534.089-.995.144-1.6.317.433.447,1.032.968.786.326-.153.526-.572.844-.942v1.748h1.022v-3.546c-1.118-.249-1.162-.228-1.565.652C-3675.882,2674.736-3676,2674.957-3676.174,2675.313Zm-2.147,105.158.987-.074v-1.929a12.841,12.841,0,0,1,1.222,1.7.77.77,0,0,0,.9.285c.385-.075.346-.4.35-.675.008-.793.012-1.585,0-2.378a3.65,3.65,0,0,0-.124-.636h-.855c-.05.522-.1,1-.158,1.63-.284-.416-.477-.691-.663-.971-.541-.817-.54-.818-1.662-.591Zm24.4-.145c.891.234.986.171,1.01-.662.01-.357,0-.714,0-1.07l.174-.054c.295.464.586.931.887,1.392.407.625.548.662,1.364.356.02-1.157.059-2.33-.029-3.572l-.9.056c-.031.588-.058,1.081-.092,1.743-.316-.477-.531-.8-.748-1.131-.519-.781-.57-.8-1.667-.547Zm-47.612-1.4a4.762,4.762,0,0,0,.446-.594,1.03,1.03,0,0,0-.731-1.566,6.267,6.267,0,0,0-2.3.051,28.055,28.055,0,0,0-.018,3.6h1.015c.023-.252.034-.447.061-.639s.07-.36.106-.537c.121.016.2,0,.227.034.208.228.413.458.6.7.481.6.756.664,1.547.313Zm-12.4-.324a1.792,1.792,0,0,0-1.92-1.99,1.809,1.809,0,0,0-1.991,2,1.854,1.854,0,0,0,1.962,1.956A1.838,1.838,0,0,0-3713.932,2778.6Zm54.651-.662c.148-.946.1-1.027-.6-1.211a3.406,3.406,0,0,0-.5-.112,2.159,2.159,0,0,0-2.289,1.225,2,2,0,0,0,2.2,2.722c1.2-.1,1.338-.247,1.313-1.444,0-.218-.044-.435-.073-.7h-1.712c-.029.391-.146.716.329.791.243.038.389.176.264.4-.051.091-.3.133-.434.1a1.1,1.1,0,0,1-.778-1.522,1.064,1.064,0,0,1,1.453-.638A7.868,7.868,0,0,1-3659.281,2777.937Zm-5.864,2.631a1.913,1.913,0,0,0,2.017-1.94,1.941,1.941,0,0,0-1.927-2.039,1.886,1.886,0,0,0-2.037,1.906A1.878,1.878,0,0,0-3665.145,2780.568Zm-41.149-105.162h-1.715c-.154.443-.186.764.358.859.082.014.135.2.2.3-.109.062-.221.183-.327.177a.978.978,0,0,1-.923-.844,1.1,1.1,0,0,1,1.546-1.311c.25.083.486.211.753.329.137-.976.13-1.041-.685-1.191a3.535,3.535,0,0,0-1.407.025,1.746,1.746,0,0,0-1.4,1.866,1.83,1.83,0,0,0,1.425,1.863,3.259,3.259,0,0,0,1.672-.066.572.572,0,0,0,.5-.663C-3706.306,2676.359-3706.294,2675.964-3706.294,2675.406Zm-10.31,2.022a18.054,18.054,0,0,0,2.056-.015,1.773,1.773,0,0,0,1.5-1.786,1.725,1.725,0,0,0-1.423-1.835,17,17,0,0,0-2.135-.018Zm15.075,121.833c-.415.026-.689.056-.965.058-.935.007-1.871.018-2.805,0a.975.975,0,0,0-1,.633,1.243,1.243,0,0,0,.271.071c1.5,0,3,.013,4.505,0,.652,0,.7-.06.7-.758.009-1.445.006-2.89,0-4.335a2.9,2.9,0,0,0-.089-.485.943.943,0,0,0-.625,1.048C-3701.518,2796.711-3701.528,2797.925-3701.528,2799.261Zm15.628-4.753a.994.994,0,0,0-.652,1.022c.014.935.008,1.87,0,2.805,0,.3-.04.6-.065.943-.367.017-.645.038-.923.04-.907.006-1.814.012-2.721,0a1.027,1.027,0,0,0-1.06.707c1.674,0,3.26.009,4.845,0,.56,0,.63-.08.635-.653.013-1.5.006-3,0-4.506A2.383,2.383,0,0,0-3685.9,2794.508Zm-36.542-.066a1.094,1.094,0,0,0-.71,1.111c.014.932.007,1.865,0,2.8,0,.3-.04.6-.067.985h-1.176c-.819,0-1.639,0-2.458-.011a1.016,1.016,0,0,0-1.066.707h1.267c1.187,0,2.374-.007,3.561,0,.4,0,.656-.1.654-.56C-3722.446,2797.839-3722.442,2796.205-3722.442,2794.442Zm51.454-133.849a23.975,23.975,0,0,0-.027-5.425,1.053,1.053,0,0,0-.558,1.054c.022.935.011,1.871,0,2.806,0,.273-.04.545-.064.861-.357.016-.636.038-.914.039-.879,0-1.758.014-2.637,0a1.006,1.006,0,0,0-1.037.666Zm-106.782-5.5a1.079,1.079,0,0,0-.706,1.107c.019.906.01,1.812,0,2.719,0,.3-.036.6-.059.968-.375.018-.679.043-.983.046q-1.317.009-2.635,0a.967.967,0,0,0-.989.709c1.684,0,3.267,0,4.85,0a.456.456,0,0,0,.519-.52C-3777.769,2658.483-3777.77,2656.845-3777.77,2655.09Zm62.65,139.381a1.093,1.093,0,0,0-.711,1.114c.019.875.009,1.751,0,2.627,0,.331-.029.661-.048,1.052-.34.024-.613.057-.887.059q-1.356.011-2.712,0a.919.919,0,0,0-1,.7h4.873a.422.422,0,0,0,.482-.461C-3715.118,2797.9-3715.119,2796.244-3715.119,2794.471Zm-60.723-133.831c1.728,0,3.336,0,4.945,0,.443,0,.459-.327.459-.66,0-1.39,0-2.78,0-4.169,0-.212-.029-.424-.044-.641a.686.686,0,0,0-.15.026,1.1,1.1,0,0,0-.512,1.083c.022,1.186.007,2.371.007,3.626-.345.017-.591.04-.837.04-.908,0-1.816,0-2.723-.016A1.126,1.126,0,0,0-3775.842,2660.64Zm93.09,119.674c.834.4,1.159-.058,1.42-.556h1.028c.556.829.63.857,1.459.5-.407-1.071-.821-2.143-1.223-3.22-.148-.4-.477-.323-.779-.336s-.563.015-.688.352C-3681.932,2778.135-3682.338,2779.208-3682.752,2780.313Zm12.2-.014c-.387-1.038-.764-2.015-1.112-3a.744.744,0,0,0-.785-.607.8.8,0,0,0-.9.58c-.316.91-.671,1.805-1,2.712a1.121,1.121,0,0,0-.006.374c.748.4,1.035-.155,1.314-.593h1.037C-3671.488,2780.576-3671.473,2780.582-3670.549,2780.3Zm21.278-119.683c.085-1.854.025-3.661.045-5.547a.934.934,0,0,0-.662,1.009c.036.934.029,1.87.018,2.805a10.264,10.264,0,0,1-.122,1.048h-.913c-.907,0-1.814.008-2.722,0a1.21,1.21,0,0,0-1.125.688Zm-46.513,16.732c-.4-1.073-.8-2.1-1.163-3.129-.155-.441-.456-.5-.857-.5a.7.7,0,0,0-.769.51c-.263.747-.556,1.483-.828,2.227-.1.284-.183.577-.289.918.525.094.925.248,1.225-.326a.885.885,0,0,1,1.365-.037C-3696.786,2677.612-3696.371,2677.487-3695.784,2677.349Zm-4.223-22.254a.842.842,0,0,0-.578.888c.037.962.033,1.926.024,2.889,0,.327-.07.653-.116,1.057h-.911c-.907,0-1.813.01-2.72,0a.9.9,0,0,0-1,.651h5.3Zm-34.3,5.505a27.362,27.362,0,0,0-.009-5.447.931.931,0,0,0-.507.973c.04.9.026,1.81.016,2.714,0,.332-.062.662-.106,1.091h-.886c-.905,0-1.81,0-2.715,0a.943.943,0,0,0-1,.668Zm20.774,139.425c1.71,0,3.313,0,4.915,0,.436,0,.485-.294.484-.635-.005-1.555-.005-3.11-.014-4.664,0-.061-.074-.122-.117-.187-.518.469-.518.469-.515.994,0,.9.019,1.809.009,2.714,0,.329-.062.658-.1,1.08h-.894c-.876,0-1.753.01-2.629,0A1.1,1.1,0,0,0-3713.528,2800.026Zm.875-139.432a24.362,24.362,0,0,0-.052-5.452.83.83,0,0,0-.478.892c.04.96.027,1.923.02,2.885,0,.3-.056.606-.093.972-.338.015-.615.037-.891.038q-1.4.008-2.8,0a.916.916,0,0,0-.966.66Zm-37.011-.662h-.909c-.9,0-1.809.005-2.714-.006a.941.941,0,0,0-1.023.666,22.629,22.629,0,0,0,5.268-.111,22.116,22.116,0,0,0-.086-5.339c-.088.08-.219.14-.247.231C-3749.807,2656.824-3749.323,2658.338-3749.665,2659.932Zm56.337,0h-1.049c-.85,0-1.7.006-2.549,0a.979.979,0,0,0-1.047.715c1.581,0,3.081.007,4.58,0,.728,0,.771-.045.778-.775.011-1.416.006-2.832,0-4.249a3.047,3.047,0,0,0-.078-.475.983.983,0,0,0-.541,1.043c.008.878.011,1.756,0,2.634C-3693.238,2659.149-3693.288,2659.48-3693.328,2659.931Zm2.354.659a2.764,2.764,0,0,0,.35.049c1.416,0,2.83.01,4.246,0,.7-.005.756-.057.763-.794.012-1.358.007-2.716,0-4.074a3.272,3.272,0,0,0-.081-.495c-.5.382-.513.382-.517.909-.007.906,0,1.811,0,2.717,0,.3-.039.6-.063.969-.339.023-.614.055-.889.057-.905.007-1.811.013-2.717,0A1.008,1.008,0,0,0-3690.974,2660.59Zm-72.611,0a26.087,26.087,0,0,0-.01-5.428.941.941,0,0,0-.486.984c.033,1.045.024,2.093,0,3.139-.016.6-.12.673-.713.706-.253.014-.509-.012-.763-.018-.735-.015-1.47-.027-2.205-.044a.965.965,0,0,0-1.024.661Zm56.012,119.8a8.406,8.406,0,0,0,2.3.082c.239-.009.451-.09.46-.389.011-.333-.19-.447-.483-.451-.362,0-.725,0-1.163,0,.018-.3.03-.5.043-.719l1.451-.1c-.032-.294-.054-.5-.07-.643-.5-.258-1.1.132-1.472-.428.359-.367.776-.178,1.144-.223.524-.065.528-.054.438-.764a12.625,12.625,0,0,0-2.651.028Zm45.681-119.822a21.78,21.78,0,0,0,5.3-.11v-5.323a.883.883,0,0,0-.577.971c.033.989.022,1.981.01,2.971-.01.829-.108.926-.939.918-.876-.008-1.753-.033-2.629-.07A1.107,1.107,0,0,0-3661.893,2660.571Zm-1.695.014v-5.461c-.569.462-.567.462-.567.988,0,.934.007,1.867-.009,2.8-.006.327-.071.653-.119,1.06-.582,0-1.085,0-1.588,0-.679-.008-1.357-.024-2.036-.037a.942.942,0,0,0-.968.65Zm-56.627,118.735c.366-.045.674-.06.972-.125a1.27,1.27,0,0,0,1.029-1.353,1.039,1.039,0,0,0-.971-1.088c-.69-.061-1.391-.014-2.145-.014v3.662h1.006C-3720.286,2780.028-3720.255,2779.723-3720.214,2779.32Zm33.728-103.01a8.408,8.408,0,0,0,1-.11,1.327,1.327,0,0,0,1.034-1.377,1.128,1.128,0,0,0-1.2-1.077c-.617-.035-1.236-.007-1.828-.007a8.574,8.574,0,0,0,.02,3.713l.841-.044C-3686.564,2677-3686.53,2676.69-3686.486,2676.31Zm-40.414-21.187a.952.952,0,0,0-.575,1.012c.037.932.022,1.866.013,2.8,0,.3-.057.6-.093.958-.48.038-.9.1-1.315.1-.734,0-1.47-.028-2.2-.06a1.046,1.046,0,0,0-1.136.718c1.8-.012,3.523.027,5.311-.03Zm-24.643,139.342a.908.908,0,0,0-.638,1.01c.038.932.026,1.867.022,2.8,0,1.084-.046,1.131-1.167,1.123-.82-.006-1.64-.04-2.459-.075a1.111,1.111,0,0,0-1.248.707c1.689,0,3.3,0,4.911,0,.378,0,.583-.139.581-.544C-3751.546,2797.853-3751.542,2796.216-3751.542,2794.465Zm31.586-133.876a22.084,22.084,0,0,0-.065-5.287c-.428.175-.434.548-.435.922,0,.961,0,1.923-.012,2.884-.013.789-.1.888-.883.888-.9,0-1.806-.028-2.708-.066a1.039,1.039,0,0,0-1.14.66Zm48.792,133.821c-.639.539-.637.539-.634,1.013.005.936.014,1.872.012,2.808,0,1.137-.037,1.177-1.212,1.169-.793-.005-1.587-.034-2.379-.073a.99.99,0,0,0-1.173.7h4.883c.366,0,.5-.211.5-.544,0-.737.006-1.475.007-2.212C-3671.163,2796.373-3671.164,2795.472-3671.164,2794.411Zm21.625.065a.91.91,0,0,0-.623.981c.007.99.009,1.98,0,2.969-.008.885-.081.969-.977.97-.875,0-1.751-.039-2.627-.073a1,1,0,0,0-1.157.706h4.889a.434.434,0,0,0,.486-.463c0-.057.008-.113.008-.169C-3649.54,2797.79-3649.54,2796.184-3649.54,2794.476Zm-94.708.007a.924.924,0,0,0-.568.993c0,.961,0,1.923-.006,2.884s-.062,1.032-.995,1.04c-.9.007-1.81-.008-2.712-.056a.989.989,0,0,0-1.1.691c.927,0,1.8.014,2.678,0a16.361,16.361,0,0,0,2.7-.081Zm6.981.05c-.541.181-.562.569-.562.971,0,.989.007,1.978,0,2.967-.01.832-.083.918-.932.925-.9.007-1.807-.027-2.709-.058-.66-.023-.789.047-1.02.656a20.535,20.535,0,0,0,5.229-.147Zm73.315.035c-.478.364-.493.364-.5.852-.008.99.007,1.981,0,2.971-.006.932-.065,1-1.026,1.008-.876.005-1.753-.026-2.63-.057-.665-.023-.8.051-1.039.69,1.569,0,3.125,0,4.679,0,.356,0,.623-.089.619-.508q-.018-2.458-.045-4.915C-3663.889,2794.6-3663.93,2794.583-3663.951,2794.568Zm1.687,5.465c1.65,0,3.179.008,4.708,0,.65-.005.732-.081.739-.747.015-1.445.006-2.89-.006-4.335a1.77,1.77,0,0,0-.175-.474c-.745.739-.373,1.574-.433,2.32-.066.809-.032,1.626-.042,2.49a10.293,10.293,0,0,1-1.09.117c-.85,0-1.7-.01-2.547-.065A1.064,1.064,0,0,0-3662.265,2800.034Zm-16.365-139.439a19.066,19.066,0,0,0-.088-5.27,2.4,2.4,0,0,0-.208.832c-.018.935,0,1.871-.007,2.806a9.709,9.709,0,0,1-.113.966h-.919c-.907,0-1.814,0-2.722,0a.926.926,0,0,0-1,.667Zm-82.993-.006a2.5,2.5,0,0,0,.347.055c1.357,0,2.714.01,4.072,0,.656-.006.71-.065.716-.745.01-1.329.005-2.658,0-3.986a1.716,1.716,0,0,0-.1-.411l-.179.013c-.2,1.428.039,2.889-.145,4.37-.34.019-.616.046-.892.048-.934.005-1.867.011-2.8,0A.994.994,0,0,0-3761.622,2660.589Zm1.8,10.63-.022-.124c.261-.149.52-.3.785-.446.522-.281,1.045-.56,1.573-.83a.531.531,0,0,0,.355-.6c-.062-.336-.339-.339-.594-.342-.763-.008-1.527-.026-2.289,0-.318.012-.879-.216-.852.353.02.426.541.256.851.288a7.022,7.022,0,0,1,1.6.123c-.788.41-1.415.725-2.032,1.061-.581.316-.589.366-.339,1.135.99,0,2,.006,3.02,0,.232,0,.582.093.59-.287.008-.364-.329-.317-.573-.326-.311-.012-.622,0-.933,0Zm75.926,128.811c1.52,0,2.931.008,4.342,0,.69-.006.752-.067.758-.8.012-1.3,0-2.6-.009-3.9a2.308,2.308,0,0,0-.09-.44l-.2-.006a5.4,5.4,0,0,0-.117.762c-.014.9,0,1.809-.007,2.714,0,.3-.034.6-.058.975h-.922c-.875,0-1.75.012-2.625-.005A1.011,1.011,0,0,0-3683.9,2800.03Zm-51.4,0c1.625,0,3.152,0,4.679,0,.414,0,.533-.223.53-.595-.007-1.162,0-2.324,0-3.486v-1.3a.617.617,0,0,0-.453.731c.025.85.02,1.7.021,2.55,0,1.466,0,1.476-1.426,1.466-.765-.005-1.529-.047-2.293-.074A.922.922,0,0,0-3735.3,2800.031Zm16.438-11.5c-.483-.248-.664.01-.772.32a2.272,2.272,0,0,0,.236,2.257,2.029,2.029,0,0,0,2.068.675,1.928,1.928,0,0,0,1.465-2.533c-.174-.868-.6-1.047-1.849-.777-.024.005-.043.035-.146.124,0,.339-.011.751.011,1.161,0,.068.151.176.237.18a.323.323,0,0,0,.256-.156,4.916,4.916,0,0,0,.181-.633c.32-.083.6-.166.72.226a1.474,1.474,0,0,1-.381,1.478,1.636,1.636,0,0,1-1.833.085,1.3,1.3,0,0,1-.533-1.414C-3719.124,2789.2-3718.988,2788.895-3718.863,2788.535Zm-28.042-127.894c1.609,0,3.1,0,4.6,0,.437,0,.487-.3.487-.637,0-1.389,0-2.779,0-4.169a1.407,1.407,0,0,0-.1-.349l-.189.011c-.28,1.422.038,2.893-.185,4.344a3.584,3.584,0,0,1-.531.088c-.991.008-1.983.013-2.974,0A1.057,1.057,0,0,0-3746.9,2660.641Zm-18.668,12.414-.142-.194a3.785,3.785,0,0,1,.4-.574c.257-.261.551-.489.832-.726a.552.552,0,0,0,.114-.861l-1.459,1.129c-.139-.129-.22-.207-.3-.282a1.1,1.1,0,0,0-1.256-.233,1.116,1.116,0,0,0-.632,1.033c-.024.443-.005.887-.005,1.441.667.01,1.226.024,1.785.025.539,0,1.079.011,1.614-.035.142-.012.267-.218.4-.335-.143-.108-.271-.275-.43-.311A6.255,6.255,0,0,0-3765.573,2673.055Zm114.425,1.485c-.149-.132-.246-.233-.356-.314a1.077,1.077,0,0,0-1.85.679,5.638,5.638,0,0,0-.064,1.013c-.01.432.234.6.645.6.652-.008,1.3,0,1.957-.01.388-.007.776-.038,1.2-.06,0-.187.042-.322-.007-.4-.32-.5-.928-.019-1.394-.454a3.307,3.307,0,0,1,.38-.629c.25-.268.558-.479.83-.728a.539.539,0,0,0,.054-.857Zm-95.6,110.175-.113-.224a6.53,6.53,0,0,1,.5-.622c.241-.238.52-.437.772-.664a.552.552,0,0,0,.074-.849c-.258.2-.477.372-.691.544-.24.193-.478.39-.731.6-.142-.12-.246-.211-.354-.3a1.084,1.084,0,0,0-1.253-.207,1.075,1.075,0,0,0-.6,1.043c0,.442.021.885.036,1.436,1.187,0,2.281.01,3.375-.013.12,0,.237-.187.355-.286-.128-.121-.239-.312-.388-.349A6.729,6.729,0,0,0-3746.751,2784.715Zm35.579,4.236c-.3-.2-.5-.088-.665.211a2.514,2.514,0,0,0,.311,2.555,2.162,2.162,0,0,0,2.52.315,2,2,0,0,0,.824-2.512c-.22-.736-.357-.793-1.636-.67a1,1,0,0,0-.26.115,2.119,2.119,0,0,0,.066,1.431c.358.031.452-.148.459-.4s.1-.437.391-.447a.469.469,0,0,1,.509.461,1.264,1.264,0,0,1-.444,1.3,1.741,1.741,0,0,1-1.7.145.972.972,0,0,1-.643-1.087C-3711.389,2789.895-3711.267,2789.434-3711.172,2788.951Zm.356-1.49c-.015-.054-.029-.107-.044-.161.747-.4,1.491-.8,2.242-1.189a.613.613,0,0,0,.306-.974,26.037,26.037,0,0,0-3.319,0c-.124.006-.236.224-.354.344l.067.186,2.581.1c-.295.184-.424.275-.562.348-.524.28-1.047.563-1.579.829-.332.167-.571.372-.492.786.087.455.454.347.745.352.765.012,1.53,0,2.295,0a1.3,1.3,0,0,0,.421-.026c.111-.04.2-.159.291-.243-.1-.109-.189-.274-.314-.313a2.028,2.028,0,0,0-.59-.03C-3709.687,2787.46-3710.251,2787.461-3710.815,2787.461Zm-34.463.495a1.79,1.79,0,0,0-1.969-1.852,1.866,1.866,0,0,0-2.034,1.814,1.846,1.846,0,0,0,2.041,1.8A1.771,1.771,0,0,0-3745.279,2787.956Zm90.765-90.606a1.736,1.736,0,0,0-1.759,1.962,1.754,1.754,0,0,0,1.862,1.949,1.777,1.777,0,0,0,1.72-2.009A1.739,1.739,0,0,0-3654.514,2697.351Zm-65.06,90.347c1.1,0,2.232.011,3.358-.016.116,0,.227-.225.341-.345l-.07-.195-2.7-.073a19.768,19.768,0,0,1,2.155-1.277,1.772,1.772,0,0,0,.485-.333.4.4,0,0,0-.245-.693c-1.047-.03-2.1-.015-3.145.015-.1,0-.2.233-.306.357l.086.193h2.377a12.308,12.308,0,0,1-1.923,1.191C-3719.739,2786.838-3719.735,2786.845-3719.574,2787.7ZM-3758.5,2673.3c.635-.111.707-.095.814.174a1.4,1.4,0,0,1-.542,1.644,1.817,1.817,0,0,1-1.772-.091,1.377,1.377,0,0,1-.386-1.548c.083-.265.207-.517.316-.784-.56-.1-.581-.111-.689.092a2.107,2.107,0,0,0,.954,3.062,2.1,2.1,0,0,0,2.29-.465,2.263,2.263,0,0,0,.267-2.4.765.765,0,0,0-.469-.4,10.975,10.975,0,0,0-1.383-.019c0,.539-.011.955.011,1.369,0,.069.156.177.242.179a.313.313,0,0,0,.239-.177A4.784,4.784,0,0,0-3758.5,2673.3Zm1.242-5.271a2.676,2.676,0,0,0-.687-2.918,2.146,2.146,0,0,0-2.306.088,2.584,2.584,0,0,0-.547,2.83Zm41.914-2.79c-.788-.448-1.213-.448-1.583,0a1.545,1.545,0,0,0,.007,1.818c.374.451.785.466,1.591.056.875.549,1.352.554,1.793.021a1.63,1.63,0,0,0-.031-1.966C-3714.051,2664.637-3714.519,2664.656-3715.345,2665.242Zm9.58,12.16h2.433c-.152-.313-.236-.518-.348-.706-.067-.112-.26-.2-.256-.294.03-.688-.375-1.457.371-2.029.11-.084.093-.333.153-.582h-2.387c.122.291.147.565.285.643.5.285.338.744.33,1.135-.008.411.209.912-.369,1.188C-3705.676,2676.815-3705.68,2677.123-3705.765,2677.4Zm48.822,103.075c.763,0,1.353.016,1.94-.012.136-.006.366-.151.375-.249a.573.573,0,0,0-.195-.479c-.362-.167-.392-.445-.387-.769,0-.255,0-.51,0-.765,0-.316.007-.6.383-.766.143-.063.173-.377.281-.643a8.47,8.47,0,0,0-2.37-.025c.076.287.074.58.181.628.584.263.386.766.393,1.184s.161.915-.387,1.2C-3656.839,2779.837-3656.837,2780.111-3656.943,2780.478Zm-51.268,3.775a11.165,11.165,0,0,0-.018-1.815,1.85,1.85,0,0,0-2.208-1.384,2.226,2.226,0,0,0-1.367,3.2Zm-7.75-.465a3.629,3.629,0,0,0-.069-2.008,1.747,1.747,0,0,0-1.859-1.162,1.664,1.664,0,0,0-1.707,1.243,3.435,3.435,0,0,0,.009,1.927Zm-50.724-76.267a.549.549,0,0,1,.8.167c.257.3.5.611.771.9a.535.535,0,0,0,.834.064l-1.117-1.422c.132-.147.235-.242.315-.354a1.063,1.063,0,0,0-.839-1.8c-.439-.036-.884-.006-1.426-.006,0,1.193-.009,2.286.013,3.378,0,.117.183.231.28.347.105-.108.28-.2.3-.326A7.539,7.539,0,0,0-3766.685,2707.521Zm54.039-33.747c.1.289.122.588.245.641.425.181.379.513.379.85,0,.255,0,.51,0,.764,0,.278.03.536-.334.688-.324.135-.286.436-.078.725a7.045,7.045,0,0,0,2.045-.073c.258-.569-.216-.656-.487-.863V2674.7c.183-.27.827-.323.425-.927Zm11.786,3.642v-2.77c1.12-.194,1.12-.194.931-.911-1.047,0-2.111-.048-3.212.035.014.265-.029.54.04.571a8.9,8.9,0,0,0,1.1.351v2.724Zm-40.192,104.852c-.438-.156-.619.078-.67.369a5.336,5.336,0,0,0-.086,1.258,1.154,1.154,0,0,0,.994,1.1c.561.059.953-.237,1.148-.9a7.768,7.768,0,0,1,.216-.9c.075-.173.3-.389.453-.39a.617.617,0,0,1,.469.371,2.873,2.873,0,0,1-.018.983,7.316,7.316,0,0,1-.29.954c.356-.148.6-.174.711-.31a2.207,2.207,0,0,0-.083-2.323,1.015,1.015,0,0,0-1.817.3c-.12.314-.136.666-.254.98a4.027,4.027,0,0,1-.407.666C-3741.307,2783.908-3741.307,2783.908-3741.052,2782.268Zm1.516,7.391a4.99,4.99,0,0,0-.443-.368,1.071,1.071,0,0,0-1.758.695,2.333,2.333,0,0,0,.132,1.651c.91,0,1.84,0,2.771,0a3.151,3.151,0,0,0,.509-.018c.335-.056.407-.245.237-.562l-1.143-.1a.582.582,0,0,1,.176-.848c.282-.236.56-.478.835-.723a.55.55,0,0,0,.083-.85Zm10.053-122.072c.347-.066.686-.107,1.01-.2a1.238,1.238,0,0,0,1-1.217,1.3,1.3,0,0,0-.982-1.24,3.731,3.731,0,0,0-2.1.012,1.151,1.151,0,0,0-.921,1.173,1.161,1.161,0,0,0,.913,1.261C-3730.212,2667.478-3729.844,2667.519-3729.483,2667.587Zm8.445-.361c.2-.085.431-.115.457-.2a1.616,1.616,0,0,0,.054-.74,1.637,1.637,0,0,0-1.265-1.346,2.335,2.335,0,0,0-2.326.347,1.366,1.366,0,0,0-.168,1.651,1.357,1.357,0,0,0,1.55.594,1.228,1.228,0,0,0,.819-1.255c0-.215,0-.43,0-.694C-3721.016,2665.8-3721.109,2666.528-3721.038,2667.225Zm52.083,112.41c-.206-1.022.059-1.964-.208-2.921l-.934.055v3.645a7.153,7.153,0,0,0,2.673-.043c.151-.513,0-.736-.453-.736Zm17.475-112.046a10.845,10.845,0,0,0,1.089-.22,1.213,1.213,0,0,0,.928-1.264,1.261,1.261,0,0,0-.957-1.165,3.72,3.72,0,0,0-2.176.023,1.175,1.175,0,0,0-.875,1.131,1.182,1.182,0,0,0,.827,1.248A10.557,10.557,0,0,0-3651.479,2667.59Zm-46.081-2.4c-.406-.09-.492.134-.5.417a1.612,1.612,0,0,0,.749,1.528,2.559,2.559,0,0,0,2.519.169,1.3,1.3,0,0,0,.68-1.576,1.368,1.368,0,0,0-1.51-.968,1.246,1.246,0,0,0-1.041,1.345c0,.2.019.407.03.628C-3697.616,2666.55-3697.356,2665.72-3697.56,2665.188Zm-54.208,82.744a15.024,15.024,0,0,0,4.1-.051v-1.026h-4.1Zm29.639,22.987h4.087v-1.07a13.151,13.151,0,0,0-4.087.063Zm-21.928-22.982a15.373,15.373,0,0,0,4.1-.053v-1.029h-4.1Zm-1.752,31.285c-.072.779-.128,1.392-.191,2.081l-1.056-.082c-.259-.665.154-1.339-.322-1.846-.4.085-.364.367-.375.614a6.32,6.32,0,0,1-.033.93.518.518,0,0,1-.356.346.511.511,0,0,1-.385-.318,9.647,9.647,0,0,1-.05-1.1c-.013-.23-.055-.458-.369-.446a3.927,3.927,0,0,0-.05,2.494,33.814,33.814,0,0,0,3.623,0c0-.846.009-1.572-.012-2.3C-3745.389,2779.514-3745.563,2779.434-3745.809,2779.221Zm-24.7-18.619c.9.776,1.843.518,2.833.452a3.357,3.357,0,0,0-.1-1.774c-.939-.007-1.9-.311-2.731.484Zm92.593-13.764v1.191a29.072,29.072,0,0,0,4.094-.018v-1.173Zm-73.831,22.956v1.126h4.066v-1.126Zm66.5-21.776h4.118v-1.206c-1.4-.026-2.742-.044-4.118.013Zm-3.279-1.163h-4.13v1.087a11.475,11.475,0,0,0,4.13-.07Zm-48.35,1.1a13.825,13.825,0,0,0,4.167-.108c-.015-.305-.031-.628-.05-1.008a38.228,38.228,0,0,0-4.118,0Zm-7.171,21.833v1.124h4.075v-1.124Zm14.514-21.808h4.064v-1.13h-4.064Zm-38.451-77.739a33.512,33.512,0,0,0,3.789-.012c0-.784.014-1.458-.012-2.129,0-.129-.166-.252-.254-.377-.108.135-.293.26-.31.406-.054.467-.044.941-.06,1.425a3.249,3.249,0,0,1-.481.088c-.612.007-.687-.064-.715-.663-.011-.226.015-.454-.009-.678a5.044,5.044,0,0,0-.133-.594l-.181-.025a1.424,1.424,0,0,0-.248.442c-.045.305-.015.621-.034.931-.036.584-.087.61-.807.4,0-.316.014-.652,0-.987-.016-.306.1-.708-.521-.753A11.34,11.34,0,0,0-3767.988,2670.24Zm68.039,76.588v1.229c1.39.014,2.728.08,4.054-.03v-1.2Zm-22.18,1.2a25.677,25.677,0,0,0,4.079-.031v-1.141h-4.079Zm7.46-1.2v1.191h4.064v-1.191Zm26.11,22.951a27.083,27.083,0,0,0-4.083.026v1.115h4.083Zm-18.729-22.932v1.2a39.023,39.023,0,0,0,4.083-.019v-1.178Zm11.422,22.917a27.232,27.232,0,0,0-4.1.054v1.091h4.1Zm-11.429,1.205c.775,0,1.448.017,2.12,0a7.214,7.214,0,0,0,1.98-.1v-1.007a13.681,13.681,0,0,0-4.1.031Zm55.361-24.11H-3656v1.1a12.279,12.279,0,0,0,4.063-.069Zm-62.725,22.938v1.115h4.052V2769.8Zm-25.488,8.99a3.115,3.115,0,0,0-.164,1.375c-.042.649-.184.72-.9.405,0-.432.02-.885-.013-1.335-.009-.125-.173-.24-.266-.359-.1.12-.278.238-.281.359a5.9,5.9,0,0,0,.122,2.168c1.215.018,2.413.06,3.662-.029a12.82,12.82,0,0,0-.069-2.685c-.815.642-.249,1.481-.652,2.042h-.849C-3739.959,2780.134-3739.378,2779.325-3740.146,2778.79Zm3.28-7.92a15,15,0,0,0,4.09-.053v-1.028h-4.09Zm84.932-1.1a31.636,31.636,0,0,0-4.126.043c.021.43.039.772.056,1.1h4.071Zm-33.312,1.143h4.157c-.019-.411-.034-.755-.052-1.145a32.376,32.376,0,0,0-4.1.041Zm-44.291-.042a15.57,15.57,0,0,0,4.073-.039v-1.034h-4.073Zm70.354.07c-.024-.437-.042-.782-.063-1.166-1.419-.057-2.73-.068-4.127,0,.023.466.04.81.057,1.168Zm-20.113,18.257c-.137-.026-.254-.087-.339-.058-1.062.37-2.125.737-3.17,1.149a.63.63,0,0,0-.268.533.7.7,0,0,0,.39.46c.969.379,1.952.722,2.934,1.067a1.549,1.549,0,0,0,.4.027c.113-.753-.631-.563-.895-1v-1.238C-3679.958,2789.752-3679.321,2789.9-3679.295,2789.193Zm-8.264,2.215a1.228,1.228,0,0,1-.05-.243c-.042-.623-.135-1.259.732-1.45.23-.051.32-.3.16-.541-.061-.023-.122-.071-.162-.057-1.089.376-2.182.743-3.257,1.157a.635.635,0,0,0-.274.53.68.68,0,0,0,.37.47c1.024.394,2.063.75,3.1,1.11.063.022.151-.026.254-.046C-3686.555,2791.677-3687.208,2791.8-3687.559,2791.408Zm24.246-43.4h4.07v-1.163h-4.07Zm-2.641,42.065c.917-.446.917-.446.791-1.026-1.067.384-2.125.763-3.182,1.147-.247.09-.452.208-.46.531-.009.358.2.49.488.594.905.323,1.8.665,2.71.983a2.412,2.412,0,0,0,.561.054c.089-.748-.664-.552-.908-.986ZM-3808,2728.958c-1.034.031-2.011-.325-2.8.477-.056.878.108,1.2.817,1.317a3.942,3.942,0,0,0,1.979-.1Zm.048,7.159c0-.53,0-.943,0-1.356,0-.355-.2-.507-.525-.515-.394-.009-.788-.025-1.18,0-.936.052-1.24.455-1.1,1.415C-3809.969,2736.4-3809.027,2736.088-3807.953,2736.117Zm130.02,34.8h4.1v-1.154a38.155,38.155,0,0,0-4.1.029ZM-3764.3,2674.2c-1.124.4-2.157.77-3.185,1.15-.258.1-.535.174-.548.553-.015.416.266.523.563.631.877.316,1.754.632,2.636.936a4.007,4.007,0,0,0,.594.1c.078-.778-.708-.592-.93-1v-1.287C-3764.3,2674.794-3764.3,2674.794-3764.3,2674.2Zm40.363,117.823c.548-.054.6-.047.626-.232a4.341,4.341,0,0,0,.065-1.324,1.259,1.259,0,0,0-1.336-.95,1.172,1.172,0,0,0-1.064,1.129,1.919,1.919,0,0,0-.011.254c0,.272-.13.429-.414.417s-.366-.217-.376-.466a6.61,6.61,0,0,0-.052-.93c-.022-.122-.2-.215-.31-.322-.085.1-.237.19-.245.294a4.256,4.256,0,0,0,.119,2.01,3.511,3.511,0,0,0,1.867-.1c0-.277-.011-.53,0-.781.03-.592.216-.812.646-.792.457.021.693.335.645.9C-3723.8,2791.408-3723.875,2791.679-3723.941,2792.028Zm67.052.467c.181-.9-.657-.673-.86-1.094v-1.339c.9-.44.9-.44.816-1.04-1.156.426-2.3.821-3.417,1.275a.5.5,0,0,0,.026.933C-3659.225,2791.669-3658.1,2792.052-3656.889,2792.5Zm-37.282-115.844c-.039-.983-.076-1.918-.114-2.848h-1.009v3.6h2.673c.153-.507.033-.749-.436-.748Zm26.982-3.04a4.349,4.349,0,0,1,.972,2.384,4.321,4.321,0,0,1-.942,2.381c.842.214.973.172,1.342-.39a3.715,3.715,0,0,0-.045-4.014C-3666.228,2673.45-3666.333,2673.417-3667.188,2673.612Zm16.251,114.458c.324.19.505.079.6-.16a1.79,1.79,0,0,0-.08-1.71,1.225,1.225,0,0,0-1.238-.576,1.072,1.072,0,0,0-.986.909c-.035.166-.081.331-.1.5-.036.276-.2.439-.453.364a.59.59,0,0,1-.312-.408c-.052-.3,0-.623-.04-.929-.019-.132-.169-.245-.26-.366-.1.116-.282.228-.288.348a11.4,11.4,0,0,0,.013,1.608.539.539,0,0,0,.373.365,2.966,2.966,0,0,0,1.567-.093c.021-.391.013-.755.067-1.11a.567.567,0,0,1,.654-.525.667.667,0,0,1,.629.592,1.941,1.941,0,0,1-.043.582C-3650.863,2787.67-3650.905,2787.88-3650.937,2788.07Zm-21.112.964c-1.131.411-2.243.8-3.337,1.23a.654.654,0,0,0-.324.51.676.676,0,0,0,.362.484c.942.378,1.9.715,2.856,1.057a3.189,3.189,0,0,0,.5.091c.165-.81-.665-.593-.912-1.077,0-.021-.016-.159-.028-.3-.052-.594-.023-1.129.727-1.289C-3671.936,2789.687-3671.875,2789.46-3672.049,2789.034Zm21.668-.348a.967.967,0,0,0-.311,0c-.985.348-1.967.705-2.949,1.062-.249.09-.458.21-.465.528-.009.359.225.489.5.589q.877.315,1.755.627c.469.167.938.33,1.4.491.278-.442.033-.566-.237-.708-.213-.113-.528-.24-.575-.419a2.144,2.144,0,0,1,.013-1.085c.052-.182.369-.3.584-.419C-3650.4,2789.21-3650.161,2789.074-3650.381,2788.686Zm-16.171-17.771v-1.131a26.5,26.5,0,0,0-4.056.024v1.107Zm-4.06-22.866c1.407.037,2.717.069,4.063-.01v-1.178h-4.063Zm-107.007,11.208a11.421,11.421,0,0,0,0,1.42.613.613,0,0,0,.407.419,8.269,8.269,0,0,0,1.52.015.793.793,0,0,0,.723-.872c.019-.561-.213-.933-.7-.971C-3776.285,2759.221-3776.9,2759.257-3777.619,2759.257Zm89.111,26.754a9.412,9.412,0,0,0-1.251.25,1.142,1.142,0,0,0-.8,1.174,1.145,1.145,0,0,0,.771,1.115,3.462,3.462,0,0,0,2.488,0,1.128,1.128,0,0,0,.736-1.215,1.071,1.071,0,0,0-.793-1.079C-3687.729,2786.144-3688.119,2786.09-3688.508,2786.011Zm-89.109-24.069c-.01.517-.031.954-.024,1.39a.443.443,0,0,0,.5.455,12.758,12.758,0,0,0,1.43,0c.515-.047.744-.377.738-.936s-.247-.869-.768-.9C-3776.328,2761.917-3776.915,2761.942-3777.617,2761.942Zm37.358,23.664c-.033.586-.064,1.162-.1,1.782h-.8c-.033-.626-.062-1.2-.1-1.881-.245.131-.439.175-.454.252a6.245,6.245,0,0,0-.006,2.216,12.092,12.092,0,0,0,3.737-.067,11.106,11.106,0,0,0-.069-2.454c-.841.568-.231,1.435-.648,1.936h-1.019c0-.391.023-.726-.007-1.056C-3739.751,2786.039-3739.608,2785.608-3740.259,2785.606Zm90.681-115.329-.2-.167-1.695,1.1-1.8-1.123c-.257.56.109.7.364.9s.527.392.875.651c-.368.258-.638.449-.91.637-.3.208-.625.405-.271.9l1.731-1.129,1.89,1.231c.037-1.068-1-1.058-1.256-1.642C-3650.517,2671.073-3649.554,2671.087-3649.578,2670.277Zm-38.9,3.4c-.75-.277-.917-.237-1.277.26a3.615,3.615,0,0,0-.055,4.068c.372.555.478.585,1.35.337A3.293,3.293,0,0,1-3688.475,2673.673Zm31.745,113.265c-.322-.658-1.179-.349-1.435-1.091-.241.776-.8.612-1.289.629a6.46,6.46,0,0,0-.761.03c-.4.061-.553.389-.274.654a20.586,20.586,0,0,0,1.932,1.639c.383.282.686.083.724-.419.028-.358.005-.72.005-1.061Zm-113.78-21.02c.856.795,1.829.481,2.813.453v-1.612a3.166,3.166,0,0,0-2.813.36Zm8.046-66.082c.214-.312.408-.588.593-.869s.354-.555.61-.96c-1.05-.068-1.027,1-1.629,1.209-.56-.314-.543-1.3-1.593-1.217l1.17,1.892-1.179,1.815c1.049.112,1.018-.976,1.612-1.183.566.3.549,1.3,1.6,1.192Zm-1.564,8.771.141.207c.8.046.791-.958,1.455-1.237.176.25.362.519.554.785.208.289.4.625.935.321l-1.125-1.75,1.179-1.846c-1.042-.03-1.031.966-1.607,1.218-.57-.276-.505-1.324-1.563-1.16l1.141,1.82-.547.814Zm75.822-41.383c.031-.461.048-.793.078-1.125.027-.31.151-.543.5-.579a.626.626,0,0,1,.73.443,1.7,1.7,0,0,1,.02.668,6.775,6.775,0,0,1-.188.772c.284-.083.512-.078.6-.187a1.679,1.679,0,0,0-.34-2.145,1.191,1.191,0,0,0-1.918.824c-.036.216-.07.433-.1.636-.738.048-.738.048-.773-.548-.021-.348-.044-.7-.076-1.18-.247.169-.425.225-.442.312a4.361,4.361,0,0,0,.041,2.026,3.952,3.952,0,0,0,.508.079C-3689.148,2667.231-3688.726,2667.224-3688.206,2667.224Zm-43.143,119.256c.368.2.556.057.677-.265a1.769,1.769,0,0,0-.361-1.89c-.467-.4-.961-.352-1.776.172a3.226,3.226,0,0,0-.422-.261.8.8,0,0,0-1.174.46,4.335,4.335,0,0,0,0,1.492c.034.267.282.413.584.214a11.384,11.384,0,0,1-.076-1.165c0-.13.168-.356.269-.362a.661.661,0,0,1,.482.217,2.818,2.818,0,0,1,.305.634c.378-.03.418-.255.453-.482.056-.36.259-.587.626-.548a.658.658,0,0,1,.58.726A6.772,6.772,0,0,1-3731.349,2786.479Zm70.788-113.265c.5-.318.9-.53,1.248-.805a.853.853,0,0,1,1.212.018c.358.284.772.5,1.313.838-.045-1.04-1.006-1.043-1.3-1.7.256-.182.527-.374.8-.567.287-.206.651-.378.358-.927l-1.8,1.128-1.829-1.163c-.1,1.032.914,1,1.182,1.565C-3659.609,2672.208-3660.688,2672.126-3660.562,2673.214Zm-113.545,76.121a2.448,2.448,0,0,0-.02-1.771h-2.133v1.771Zm-3.483,15.3v1.779c.691,0,1.31.031,1.923-.01.467-.032.695-.373.693-.891,0-.544-.2-.834-.709-.869C-3776.271,2764.609-3776.864,2764.64-3777.59,2764.64Zm1.3-19.9c.4.022.7.051,1,.053,1.338.009,1.494-.175,1.293-1.516a1.684,1.684,0,0,0-.117-.316h-2.176Zm33.362-78.172a13.315,13.315,0,0,0-1-1.006,3.258,3.258,0,0,0-.936-.548.967.967,0,0,0-1.168.453,1.7,1.7,0,0,0,.022,1.707c.057.113.3.132.6.248a5.076,5.076,0,0,1-.2-.954c0-.235.054-.589.206-.675a1.079,1.079,0,0,1,.788,0,1.769,1.769,0,0,1,.592.47c.28.281.542.579.8.877a.627.627,0,0,0,.889.151,6.654,6.654,0,0,0-.053-2.3c-.019-.072-.164-.11-.391-.252C-3742.823,2665.367-3742.866,2665.879-3742.925,2666.571Zm-33.347,83.181v1.78h2.108a2.145,2.145,0,0,0,.02-1.78Zm43.47,39.827a3.928,3.928,0,0,0-.394-.254.807.807,0,0,0-1.22.474,4.08,4.08,0,0,0,.029,1.491c.042.269.3.409.578.152a5.539,5.539,0,0,1-.1-1c.012-.178.206-.344.317-.515a2.465,2.465,0,0,1,.5.362,1.866,1.866,0,0,1,.224.511c.479.024.439-.316.49-.575.058-.3.249-.49.525-.43a1,1,0,0,1,.577.4,1.15,1.15,0,0,1,.068.648,5.708,5.708,0,0,1-.141.729c.573.005.573.005.7-.392a1.671,1.671,0,0,0-.411-1.793C-3731.521,2789.015-3732.068,2789.068-3732.8,2789.578Zm65.387-122.339c-.056-.25-.136-.516-.172-.788-.085-.649.352-.981.94-.7a2.693,2.693,0,0,1,.664.521c.283.277.541.58.808.873a.613.613,0,0,0,.894.111c0-.661.014-1.365-.014-2.067,0-.118-.188-.229-.289-.343-.095.121-.255.233-.271.363-.05.4-.044.813-.057,1.155-.3-.246-.574-.493-.87-.706a5.024,5.024,0,0,0-.991-.625.98.98,0,0,0-1.237.456,1.685,1.685,0,0,0-.009,1.629C-3667.909,2667.362-3667.707,2667.433-3667.415,2667.239Zm.491,120.56c.048-.15.089-.278.131-.406.173-.529.374-.693.746-.61s.532.338.5.856c-.017.3-.085.6-.151,1.037.253-.087.471-.094.558-.2a1.869,1.869,0,0,0-.205-2.051c-.518-.469-1.049-.421-1.8.164-.611-.427-1.016-.482-1.378-.185a1.68,1.68,0,0,0-.284,1.746c.112.318.264.489.661.313a5.65,5.65,0,0,1-.165-1.066.633.633,0,0,1,.359-.48c.133-.035.382.159.495.313C-3667.317,2787.412-3667.4,2787.751-3666.924,2787.8Zm-13.717-123.279a.935.935,0,0,1-1.134.741c-.412-.018-.827.024-1.376.045.106.312.115.567.247.688a21.574,21.574,0,0,0,1.806,1.533c.425.314.735.122.788-.42.038-.382.052-.766.076-1.142l1.027-.221c-.175-.211-.284-.45-.384-.446C-3680.039,2665.318-3680.324,2665.1-3680.642,2664.52Zm7.1,1.978c.032-.1.081-.226.109-.355.078-.366.236-.646.67-.608.372.032.6.323.578.794a10.893,10.893,0,0,1-.185,1.143c.282-.125.523-.154.615-.286a1.8,1.8,0,0,0-.271-2.035c-.5-.415-1.09-.339-1.734.227l-.2-.138c-.722-.508-1.405-.281-1.553.581a2.979,2.979,0,0,0,.132,1.235c.072.265.32.387.606.107-.065-.293-.155-.588-.193-.89a.478.478,0,0,1,.352-.593c.3-.068.477.1.552.388C-3674,2666.311-3673.978,2666.6-3673.543,2666.5Zm-58.085,115.42-.019.16-.783.29q-.836.306-1.673.61c-.314.114-.477.288-.229.73a32.558,32.558,0,0,0,3.459-1.27.494.494,0,0,0-.052-.887c-1.122-.442-2.263-.835-3.4-1.247-.3.513.021.644.31.753C-3733.223,2781.354-3732.424,2781.632-3731.629,2781.918Zm27.955,4.786a9.221,9.221,0,0,0,2.4.054c.129-.006.25-.17.375-.261-.126-.119-.242-.325-.38-.341-.446-.052-.9-.019-1.352-.05a.6.6,0,0,1-.6-.659c0-.377.248-.476.554-.5.337-.021.677-.009,1.015-.036.261-.021.52-.079.78-.12l.044-.2c-.132-.1-.263-.285-.4-.289a10.284,10.284,0,0,0-1.768.048c-.689.1-.933.527-.821,1.22C-3703.778,2785.9-3703.739,2786.228-3703.674,2786.7Zm-23.264,2.5c1.159-.43,2.292-.838,3.411-1.282a.549.549,0,0,0,.274-.45.742.742,0,0,0-.363-.492c-.648-.277-1.319-.5-1.983-.737-.44-.158-.883-.307-1.3-.453-.246.39-.083.568.181.676.392.159.8.288,1.192.437.432.163.86.333,1.458.565-.419.162-.648.254-.879.339q-.833.307-1.669.608C-3726.9,2788.515-3727.153,2788.636-3726.937,2789.2Zm-26.355-121.99a7.494,7.494,0,0,1-.132-1.154c0-.137.214-.328.368-.378.109-.035.32.092.416.205s.087.336.186.463c.08.1.25.134.431.221.046-.183.069-.289.1-.393.148-.515.365-.7.729-.637s.566.364.529.844a8.273,8.273,0,0,1-.167.908c.285.167.494.164.625-.16a1.928,1.928,0,0,0,.04-1.49,1.164,1.164,0,0,0-1.755-.561,2.662,2.662,0,0,0-.307.254c-.751-.468-1.027-.5-1.407-.19a1.614,1.614,0,0,0-.306,1.738C-3753.839,2667.181-3753.7,2667.383-3753.293,2667.212Zm48.733,124.8c1.078-.384,2.136-.759,3.192-1.139.272-.1.509-.213.508-.583s-.269-.464-.531-.561c-.927-.344-1.854-.686-2.787-1.012a1.616,1.616,0,0,0-.486-.007c0,.131-.027.27,0,.285.927.435,1.858.858,2.842,1.306-.2.089-.363.175-.537.24-.635.236-1.276.457-1.908.7C-3704.528,2791.347-3704.807,2791.473-3704.56,2792.015Zm-113.295-58.6c.717,0,1.334.032,1.946-.011.4-.028.617-.39.619-.865,0-.492-.2-.849-.6-.874-.634-.04-1.273,0-1.963,0ZM-3669,2675.761c-.067,0-.144.024-.175,0-.21-.184-.407-.383-.617-.568a1.02,1.02,0,0,0-1.76.417,4.754,4.754,0,0,0-.14.977h.663c.229-.283.022-.766.566-.858.534.475,1.014,1.286,1.958.745a1.359,1.359,0,0,0,.407-1.582C-3668.973,2674.578-3668.627,2675.55-3669,2675.761Zm-118.9,67.367a10.412,10.412,0,0,0,.02,1.383.615.615,0,0,0,.411.416,3.453,3.453,0,0,0,1.665-.087v-1.712Zm2.114,4.627c-.276-.037-.441-.072-.607-.08-1.576-.073-1.7.064-1.462,1.631.007.049.061.09.145.208a4.233,4.233,0,0,0,1.924-.1Zm.006,2.189h-2.118a13.77,13.77,0,0,0,.016,1.39c.016.148.211.384.34.394a3.643,3.643,0,0,0,1.762-.089Zm.013-4.441a4.228,4.228,0,0,0-2.072.053v1.663a3.853,3.853,0,0,0,2.072-.092Zm113.814,43.062a12.214,12.214,0,0,0-.028-2.525c-.888.363-.282,1.134-.778,1.723a3.062,3.062,0,0,0-.358-.574,4.813,4.813,0,0,0-.9-.771,1.085,1.085,0,0,0-1.685.508,3.2,3.2,0,0,0,0,1.254c.047.3.269.506.635.274a7.356,7.356,0,0,1-.115-.99.531.531,0,0,1,.8-.539,2.072,2.072,0,0,1,.618.439c.326.314.624.658.937.986C-3672.606,2788.576-3672.394,2788.827-3671.953,2788.565Zm-102.086-43.243h-2.219V2747h2.219Zm6.046-80.673a9.329,9.329,0,0,0,.039,2.394c1.155,0,2.224,0,3.293,0,.294,0,.5-.116.368-.556l-1.47-.112c-.384-.5.065-1.2-.607-1.663a5.747,5.747,0,0,0-.206.663c-.039.221-.026.45-.049.674-.028.277-.21.428-.462.346a.59.59,0,0,1-.334-.385,9.282,9.282,0,0,1-.044-1.013C-3767.479,2664.744-3767.568,2664.549-3767.993,2664.648Zm20.164,113.345c-.69.051-.7.051-.73-.482a8.27,8.27,0,0,0-.046-.93c-.025-.137-.2-.247-.351-.419a4.638,4.638,0,0,0-.059,2.523c1.1,0,2.219.015,3.341-.011.283-.006.347-.233.2-.547l-1.584-.1-.168-1.545C-3747.634,2776.691-3747.634,2776.691-3747.829,2777.993Zm68.446,8.364-.2-.084-.475.694c-.477,0-.986-.027-1.491.008s-1.063-.186-1.572.263l.757,1.184c.193-.3.3-.656.453-.679a12.681,12.681,0,0,1,1.685-.074c.439-.008.315.488.57.645.042.026.107.013.26.027A3.506,3.506,0,0,0-3679.383,2786.358Zm-83.971-99.631c0-.43,0-.792,0-1.155,0-.509.016-1.021-.028-1.527-.012-.141-.211-.266-.325-.4-.1.115-.275.225-.283.346a18.831,18.831,0,0,0,.02,3.253,3.938,3.938,0,0,0,2.3.017c.062-.038.054-.189.094-.352Zm114.7,32.487a.939.939,0,0,0-1.03-.98.945.945,0,0,0-.993,1.013,1.066,1.066,0,0,0,1.049,1.015A.954.954,0,0,0-3648.653,2719.214Zm0-7.141a.968.968,0,0,0-1.045-.975.97.97,0,0,0-.975,1.045,1.035,1.035,0,0,0,1.063.986A.946.946,0,0,0-3648.655,2712.073Zm7.244,6.995a1.015,1.015,0,0,0-1.064-.974.942.942,0,0,0-.948,1.055.988.988,0,0,0,1.05.979A.969.969,0,0,0-3641.411,2719.067Zm-60.453-51.97c.241-.56-.053-.708-.329-.856-.8-.427-1.591-.866-2.4-1.265a4.247,4.247,0,0,0-.9-.209v2.626c.156-.008.273.023.316-.021.492-.5-.014-1.2.372-1.812Zm60.453,58.977a.983.983,0,0,0-1-1.025.925.925,0,0,0-1.013.985,1.017,1.017,0,0,0,.992,1.05A.982.982,0,0,0-3641.411,2726.074Zm-7.239.084a.965.965,0,0,0-1.027-.992.957.957,0,0,0-1,1.016,1.052,1.052,0,0,0,1.04,1.016A.973.973,0,0,0-3648.65,2726.158Zm-135.227-57.1a.9.9,0,0,0-.874-1.027,1.03,1.03,0,0,0-1.127,1,.926.926,0,0,0,.936.993A1,1,0,0,0-3783.877,2669.053Zm-6.825,7.158a.884.884,0,0,0-.937-.957.994.994,0,0,0-1.054.973c-.03.619.325.974.99.99A.953.953,0,0,0-3790.7,2676.211Zm148.322,36.8a.96.96,0,0,0,.97-1.05,1.029,1.029,0,0,0-1.056-.991.957.957,0,0,0-.958,1.056A.98.98,0,0,0-3642.38,2713.009Zm-150.454-43.908a.977.977,0,0,0,1.1.921,1,1,0,0,0,.9-1.125.875.875,0,0,0-.934-.875A1.066,1.066,0,0,0-3792.833,2669.1Zm135.952,6.135.105-.263c-.124-.111-.234-.29-.375-.32a4.256,4.256,0,0,0-.842-.036c-.642,0-1.283,0-1.95,0-.039-.289-.063-.479-.09-.669-.033-.239.028-.592-.338-.559s-.249.387-.258.621c-.017.423-.012.846,0,1.269s.032.82.051,1.278c.856-.146.324-.914.854-1.32Zm-81.21,102.094.147-.2c-.106-.125-.194-.328-.322-.358a3.821,3.821,0,0,0-.841-.044c-.667,0-1.334,0-2,0-.077-.507-.136-.9-.211-1.4-.22.146-.379.2-.381.259q-.037,1.429-.028,2.858c0,.063.186.193.24.173a.443.443,0,0,0,.263-.258c.058-.318.065-.646.1-1.034Zm-28.493-78.718c.026.28.062.5.065.717.008.566-.009,1.132.008,1.7.008.258-.112.658.29.68.425.024.314-.382.33-.639.02-.338.006-.679.007-1.018,0-.471,0-.943,0-1.43l1.372-.163c-.168-.233-.251-.453-.34-.456-.9-.027-1.806-.029-2.708,0-.1,0-.189.235-.361.463Zm-10.184-29.522a.911.911,0,0,0-.833-1.061,1,1,0,0,0-1.135.88.908.908,0,0,0,.876,1.1A.976.976,0,0,0-3776.768,2669.091Zm-7.035,7.091a.869.869,0,0,0-.935-.941,1.054,1.054,0,0,0-1.036,1.014.931.931,0,0,0,1.031.963C-3784.145,2677.22-3783.81,2676.851-3783.8,2676.182Zm6.156,1.032a.9.9,0,0,0,.975-1.006.863.863,0,0,0-.917-.955,1.053,1.053,0,0,0-1.073.976A.948.948,0,0,0-3777.647,2677.214Zm34.661-7.578.377.824c.535-.64.294-1.269.3-1.843,0-.121-.2-.243-.354-.425l-.34.8c-.55,0-1.062-.025-1.569.007s-1.053-.153-1.591.189l.813,1.3.356-.85Zm-9.856.009h2.025l.336.74c.626-.426.313-1.006.369-1.482.03-.254.062-.6-.426-.6l-.251.635c-1.07.135-2.108-.059-3.225.145.269.471.467.831.684,1.179.026.042.154.02.269.031Zm24.952.714.234-.091a4.711,4.711,0,0,0-.015-1.933c-.583-.119-.362.536-.868.652-.338,0-.845-.011-1.351,0a4.479,4.479,0,0,0-1.563.125l.784,1.3.458-.763h1.891Zm-10.109-3.949h1.99l.365.757a1.591,1.591,0,0,0-.019-2.1l-.367.692c-.486,0-.992-.021-1.5.006a2.921,2.921,0,0,0-1.61.2l.79,1.306Zm2.308,3.962a1.531,1.531,0,0,0,.029-2.094l-.364.708c-.545,0-1.055-.014-1.563,0a4.2,4.2,0,0,0-1.578.141l.82,1.347.341-.832h2.036Zm78.595-3.208a2.075,2.075,0,0,0,.13-2.045c-.484-.088-.3.475-.58.592-1,.182-2.048-.124-3.138.2l.848,1.357.319-.889h2.038a3.3,3.3,0,0,0,.143.462A2.206,2.206,0,0,0-3657.1,2667.166Zm-120.145,47.946c.892.17.892.17,1.476-.086v-1.479h-1.476Zm31.739,75.146a3.67,3.67,0,0,1-3.617-.036c.017.543-.2,1.041.2,1.59.436-.737,1.1-.491,1.684-.5s1.236-.179,1.718.622C-3745.293,2791.233-3745.178,2790.733-3745.5,2790.258Zm-26.589-75.094v-1.605h-1.422v1.605Zm-1.838.007a2.207,2.207,0,0,0-.014-1.607h-1.355v1.607Zm-3.789.01v-1.631h-1.394a2.237,2.237,0,0,0,.059,1.631Zm-3.737-1.639h-1.43v1.613h1.43Zm-3.328-.01v1.632h1.408a2.674,2.674,0,0,0-.042-1.632Zm3.747,0v1.631h1.4a2.618,2.618,0,0,0-.039-1.631Zm-5.639,1.625h1.437a2.549,2.549,0,0,0-.045-1.6h-1.391Zm57.222-41.449c.189-.2.4-.427.6-.653a.89.89,0,0,0,.157-1.1,1.144,1.144,0,0,0-1.008-.532.318.318,0,0,0-.244.178.34.34,0,0,0,.088.291c.074.07.213.065.311.117.421.226.453.406.138.785-.09.109-.206.2-.3.3a.875.875,0,0,0-.157,1.158,1.007,1.007,0,0,0,1.256.319C-3728.6,2674.028-3729.308,2674.263-3729.456,2673.708Zm56.383-4.612c-.271.306-.448.511-.629.712-.375.415-.476.789-.277,1.146a1.046,1.046,0,0,0,1.07.542c.106-.009.2-.179.322-.3-1.051-.5-1.051-.5-.351-1.329.018-.022.039-.041.056-.064a.846.846,0,0,0,.113-1.089,1.173,1.173,0,0,0-1.105-.475c-.086.025-.128.2-.206.338Zm-63.637,3.177c-.352.4-.6.653-.816.933a.859.859,0,0,0,.08,1.217.763.763,0,0,0,1.154.009,2.036,2.036,0,0,0-.26-.194c-.733-.385-.738-.412-.155-1.049.038-.042.078-.082.115-.124a.876.876,0,0,0,.237-1,1.155,1.155,0,0,0-1.026-.634.367.367,0,0,0-.293.209c-.02.088.09.251.186.309A6.188,6.188,0,0,0-3736.709,2672.272Zm-51.823,25.748v1.454h1.4v-1.454Zm1.443,13.182a1.9,1.9,0,0,0-1.525.116c.025.421.052.851.078,1.279h1.447Zm-.009-1.794h-1.441v1.37a1.841,1.841,0,0,0,1.441-.059Zm.007-1.864h-1.463v1.392h1.463Zm0-2.015h-1.447v1.437h1.447Zm-.013-1.866h-1.439v1.393h1.439Zm-.018-.42V2701.8h-1.432v1.444Zm-.008-1.887v-1.432h-1.418v1.432Zm99.911-30.147c-.238-.109-.359-.16-.476-.219-.536-.266-.568-.424-.178-.875.11-.128.248-.235.349-.37a.832.832,0,0,0,.035-1.091,1.1,1.1,0,0,0-1.124-.365c-.062.024-.074.185-.123.323a3.324,3.324,0,0,1,.49.2,3.362,3.362,0,0,1,.4.343c-.115.162-.2.3-.307.428-.127.151-.288.275-.4.433a.911.911,0,0,0,.044,1.164C-3688.167,2671.529-3687.8,2671.564-3687.216,2671.208Zm-7.882.059c-.327-.242-.716-.383-.812-.635-.158-.414.364-.572.556-.867a1.884,1.884,0,0,0,.166-.294.691.691,0,0,0-.237-.907,3.292,3.292,0,0,0-1-.282,1.473,1.473,0,0,0-.127.286l.96.545c-.3.344-.555.6-.772.885a.915.915,0,0,0,.026,1.169C-3696.015,2671.52-3695.657,2671.56-3695.1,2671.267Zm-26.9-2.151c-.271.294-.456.495-.64.7-.383.421-.475.77-.277,1.139a1.028,1.028,0,0,0,1.06.541c.107-.008.2-.175.328-.292l-1.023-.559c.245-.28.415-.49.6-.683a.988.988,0,0,0,.331-1.062,1.008,1.008,0,0,0-.911-.646c-.133-.02-.285.083-.428.129a1.246,1.246,0,0,0,.24.357A6.029,6.029,0,0,0-3721.994,2669.117Zm-49.345,43.629h1.229c.084-.491.271-.99-.057-1.336a.945.945,0,0,0-1.172-.005Zm1.2-1.841c.151-.5.282-1-.038-1.336a.933.933,0,0,0-1.162,0v1.333Zm-1.2-3.263v1.365h1.21C-3769.816,2707.546-3770.188,2707.322-3771.337,2707.642Zm0-.557c.429.106.88.258,1.152-.051.335-.381.192-.888.033-1.354h-1.185Zm0-1.9c1.331.239,1.56-.053,1.162-1.405h-1.162Zm1.211-1.788a1.862,1.862,0,0,0-.1-1.519l-1.1.068v1.451Zm-.049-5.283-1.167.056c-.021.316-.051.538-.047.759s.043.434.065.625C-3770.22,2699.938-3769.766,2699.62-3770.175,2698.115Zm-1.163,3.335c1.332.228,1.558-.062,1.166-1.4h-1.166ZM-3651.252,2671a7.7,7.7,0,0,0,.282-2.494.638.638,0,0,0-.532-.653c-.054.926-.116,1.772-.139,2.62C-3651.645,2670.6-3651.463,2670.724-3651.252,2671Zm-52.682,116.673c.254.277.363.5.479.5.754.023,1.51.014,2.263-.026.116-.006.221-.224.332-.345l-.082-.18A20.614,20.614,0,0,0-3703.935,2787.674Zm-67.86-89.905c-.066-.306-.082-.74-.178-.758a3.19,3.19,0,0,0-1.225.007c-.1.02-.11.449-.174.751Zm113.287-30.394c-.177.329-.357.509-.355.685.011.7.076,1.391.129,2.085.016.205.062.4.386.256C-3658.271,2669.455-3657.869,2668.493-3658.507,2667.375Zm-117.085,29.639a1.84,1.84,0,0,0-.3-.09,4.378,4.378,0,0,0-.509-.016c-.683.022-.728.09-.545.847h1.357Zm-1.938-.05h-1.407v.786h1.407Zm-3.763.806a1.988,1.988,0,0,0,.061-.411,2.22,2.22,0,0,0-.1-.379c-.149-.026-.256-.052-.365-.061a3.6,3.6,0,0,0-.417-.009c-.639.025-.7.138-.465.859Zm-1.867-.813c-.345-.017-.6-.046-.846-.039-.609.017-.646.083-.5.834h1.345Zm-1.708.807c-.171-.37-.242-.753-.383-.782a2,2,0,0,0-1.131.062c-.272.118-.193.477.024.72Zm11.28-.018c-.1-.328-.133-.714-.241-.736a2.266,2.266,0,0,0-1.151,0c-.294.1-.218.462-.043.754.222.015.443.041.665.041C-3774.166,2697.808-3773.973,2697.778-3773.589,2697.745Zm-5.788-.761a9.115,9.115,0,0,0-.935-.065c-.6.019-.631.082-.468.841h1.339C-3779.418,2697.5-3779.4,2697.294-3779.376,2696.984Zm48.292,90.418c-.175.233-.33.354-.364.5-.057.247.118.345.353.346.253,0,.486-.059.418-.367C-3730.709,2787.74-3730.888,2787.626-3731.084,2787.4Zm39.2-102.97c-.635-.1-.634-.09-1.017.16C-3692.532,2684.661-3692.255,2684.814-3691.879,2684.432Zm3.6.141c-.235-.344-.509-.245-.885-.123C-3688.845,2684.789-3688.555,2684.619-3688.277,2684.573Zm-16.1,103.744c.116-.22.253-.364.228-.469s-.208-.2-.337-.222c-.051-.01-.211.19-.2.272C-3704.657,2788.021-3704.524,2788.123-3704.374,2788.318Zm8.188-103.948c.587.39.766.368.917,0Zm10.81.129c.561.2.608.195.9-.147C-3684.809,2684.412-3685.1,2684.229-3685.376,2684.5Zm4.56.155.037-.21a.561.561,0,0,0-.8.164Zm-11.625,15.49q-.024.131-.049.263c.271-.052.54.093.818-.211Zm3.741.037c.5.228.5.228.848,0Zm8.28.191-.021-.291c-.246.195-.548-.092-.881.291Zm2.935-.173c0,.055-.006.111-.01.166.271.061.544.147.8-.166Zm4.549.169c-.005-.061-.011-.121-.016-.182a.579.579,0,0,0-.767.23Zm-27.005-.157.009.141h.771c0-.047,0-.094,0-.141Zm3.762-.017c.429.212.429.212.833,0Zm11.237.03-.018.139h.788c0-.047,0-.093,0-.139Z" transform="translate(3853.564 -2650.336)" fill="#fff"/>
      <path id="Path_104" data-name="Path 104" d="M-3878.474,2986.07c-.277.018-.581.054-.884.054q-21.657.006-43.313.006c-.2,0-.4,0-.6-.011a.405.405,0,0,1-.428-.429c-.01-.227-.012-.454-.012-.68q0-15.272,0-30.544v-.833c.118-.106.137-.127.16-.144a.175.175,0,0,1,.072-.041,6.506,6.506,0,0,1,.673-.061q22.039,0,44.078.016a.828.828,0,0,1,.232.069C-3878.266,2954.137-3878.236,2985.161-3878.474,2986.07Zm-22.638-.163v0h21.355c1.292,0,1.294,0,1.294-1.323q0-14.8,0-29.6c0-1.522.14-1.454-1.5-1.455l-42.37,0c-1.254,0-1.257,0-1.257,1.278q0,14.886,0,29.774c0,1.326,0,1.328,1.377,1.328Z" transform="translate(3923.707 -2918.984)" fill="#fff"/>
      <path id="Path_105" data-name="Path 105" d="M-3389.9,3816.793c-.893-.2-14.96-.156-15.558.046.581,2.931,3.906,5.77,7.812,5.739C-3393.41,3822.544-3390.284,3819.387-3389.9,3816.793Z" transform="translate(3464.294 -3684.256)" fill="#fff"/>
      <path id="Path_106" data-name="Path 106" d="M-2148.663,3061.9c.822-.149.83-.153,1.154.429a13.661,13.661,0,0,0,1.091,1.772c.016-.262.039-.525.048-.788a9.721,9.721,0,0,1,.035-1.1c.021-.143.218-.261.335-.39.089.125.252.248.256.376.023.818.012,1.637.115,2.5.093-.172.193-.341.279-.517a4.852,4.852,0,0,1,5.418-2.71,4.892,4.892,0,0,1,3.823,4.7,4.9,4.9,0,0,1-3.575,5.143,4.8,4.8,0,0,1-6.05-4.1c-.049-.53-.007-1.069-.007-1.682-.6.208-.84-.153-1.061-.586a10.529,10.529,0,0,0-1.243-1.979c0,.49,0,.98,0,1.47a2.56,2.56,0,0,1-.03.675c-.044.155-.213.274-.327.409-.1-.119-.276-.234-.282-.358A21.593,21.593,0,0,1-2148.663,3061.9Z" transform="translate(2350.24 -3014.705)" fill="#fff"/>
      <path id="Path_107" data-name="Path 107" d="M-2492.308,2980.025v-5.686c0-.482-.009-.964,0-1.445.018-.726.08-.785.782-.78a3.693,3.693,0,0,1,.457.073c.134,1.182.044,2.39.06,3.591.016,1.219,0,2.438,0,3.656v3.611c-1.054.365-1.257.3-1.717-.532q-1.785-3.237-3.557-6.48c-.133-.243-.28-.48-.523-.9-.027.391-.053.6-.053.806,0,2.069,0,4.138,0,6.208,0,.33-.053.661-.084,1.035h-1.116a85.307,85.307,0,0,1-.021-10.955c1.052-.262,1.154-.227,1.63.638q1.783,3.238,3.558,6.48c.135.244.276.485.415.727Z" transform="translate(2660.072 -2935.56)" fill="#fff"/>
      <path id="Path_108" data-name="Path 108" d="M-2421.468,2976.367c.1-.7.154-1.406.308-2.092a4.79,4.79,0,0,1,1.226-2.294,3.885,3.885,0,0,1,5.848.159,5.329,5.329,0,0,1,1.213,2.67,7.889,7.889,0,0,1-.572,5.052,3.929,3.929,0,0,1-3.729,2.351,3.651,3.651,0,0,1-2.823-1.339A6.616,6.616,0,0,1-2421.468,2976.367Zm1.381-.182a6.623,6.623,0,0,0,.647,3.129,2.582,2.582,0,0,0,2.138,1.463,2.657,2.657,0,0,0,2.819-1.979,6.828,6.828,0,0,0-.083-4.814,2.57,2.57,0,0,0-2.5-1.818,2.5,2.5,0,0,0-2.5,1.8A15.036,15.036,0,0,0-2420.087,2976.186Z" transform="translate(2592.01 -2934.358)" fill="#fff"/>
      <path id="Path_109" data-name="Path 109" d="M-2571.7,2972.328h1.24a6.288,6.288,0,0,1,.082.7c0,2.125.008,4.249-.011,6.373a10,10,0,0,1-.157,1.344c-.307,2.1-2.007,3.106-4.118,2.782a3.045,3.045,0,0,1-2.777-3.148c-.132-2.486-.114-4.979-.149-7.47a2.529,2.529,0,0,1,.126-.568,3.4,3.4,0,0,1,.45-.075c.7-.017.8.058.813.75.019.792.01,1.586.011,2.379,0,1.275,0,2.549.008,3.824a6.706,6.706,0,0,0,.043.933,2.137,2.137,0,0,0,2.93,1.928,1.8,1.8,0,0,0,1.334-1.594,11.863,11.863,0,0,0,.165-1.772c.021-1.785.008-3.569.008-5.354Z" transform="translate(2730.408 -2935.72)" fill="#fff"/>
      <path id="Path_110" data-name="Path 110" d="M-2269.571,3771.713a3.943,3.943,0,0,0-.07-.572.708.708,0,0,0-.649-.573.723.723,0,0,0-.8.485,1.389,1.389,0,0,0,.063,1.3.762.762,0,0,0,1.32-.051A2.433,2.433,0,0,0-2269.571,3771.713Z" transform="translate(2458.821 -3643.389)" fill="#fff"/>
      <path id="Path_111" data-name="Path 111" d="M-2404.013,3776.155l-.316-.84-.286.87Z" transform="translate(2577.071 -3647.601)" fill="#fff"/>
      <path id="Path_112" data-name="Path 112" d="M-2330.027,3776.7l-.262-.838C-2330.6,3776.539-2330.6,3776.539-2330.027,3776.7Z" transform="translate(2511.366 -3648.082)" fill="#fff"/>
      <path id="Path_113" data-name="Path 113" d="M-2154.54,2865.469c.046-.49.118-.907-.344-1.1a.686.686,0,0,0-.6.052.766.766,0,0,0-.137,1.044Z" transform="translate(2356.468 -2840.036)" fill="#fff"/>
      <path id="Path_114" data-name="Path 114" d="M-2998.583,3854.884l.015-.057c.113,0,.226.006.338,0,.711-.043,1.1-.387,1.132-1,.037-.684-.311-1.08-1.058-1.15a3.158,3.158,0,0,0-.925.042.982.982,0,0,0-.812.867.951.951,0,0,0,.518,1.065A4.334,4.334,0,0,0-2998.583,3854.884Z" transform="translate(3104.783 -3716.167)" fill="#fff"/>
      <path id="Path_115" data-name="Path 115" d="M-2184.093,3064.466a1.739,1.739,0,0,1,1.823,1.9,1.777,1.777,0,0,1-1.72,2.01,1.753,1.753,0,0,1-1.862-1.949A1.736,1.736,0,0,1-2184.093,3064.466Zm-1.088,1.772c.015.295.011.408.028.519a1.074,1.074,0,0,0,.962,1.007.972.972,0,0,0,1.154-.851,2.95,2.95,0,0,0-.07-1.226.853.853,0,0,0-.835-.6.943.943,0,0,0-1.01.453A3.708,3.708,0,0,0-2185.181,3066.238Z" transform="translate(2383.143 -3017.451)" fill="#fff"/>
      <path id="Path_116" data-name="Path 116" d="M-2668.818,3809.3c.075-.719.143-1.36-.508-1.728a1.417,1.417,0,0,0-1.523.031,1.447,1.447,0,0,0-.486,1.7Z" transform="translate(2813.579 -3676.01)" fill="#fff"/>
      <path id="Path_117" data-name="Path 117" d="M-3158.154,3137.062v1.116c.431.112.828.139,1.079-.258.085-.134.076-.5,0-.53A7,7,0,0,0-3158.154,3137.062Z" transform="translate(3245.064 -3081.806)" fill="#fff"/>
      <path id="Path_118" data-name="Path 118" d="M-2932.9,3879.808c.128-.511.106-.907-.3-1.127a.691.691,0,0,0-.622.037c-.355.284-.282.68-.148,1.089Z" transform="translate(3046.421 -3739.183)" fill="#fff"/>
      <path id="Path_119" data-name="Path 119" d="M-2536.193,2784.291c.509,0,.968-.019,1.136-.559a.632.632,0,0,0-.306-.793.666.666,0,0,0-.85.082C-2536.514,2783.3-2536.512,2783.623-2536.193,2784.291Z" transform="translate(2693.926 -2767.783)" fill="#fff"/>
      <path id="Path_120" data-name="Path 120" d="M-2213.351,3855.627l-.989-.062-.066.168,1.054.91Z" transform="translate(2408.455 -3718.74)" fill="#fff"/>
      <path id="Path_121" data-name="Path 121" d="M-2412.541,2787.768l-.069.153,1.078.862v-1.014Z" transform="translate(2584.158 -2772.166)" fill="#fff"/>
      <path id="Path_122" data-name="Path 122" d="M-2507.429,2950.216c-.376.381-.653.228-1.017.16C-2508.064,2950.125-2508.064,2950.116-2507.429,2950.216Z" transform="translate(2669.115 -2916.119)" fill="#fff"/>
      <path id="Path_123" data-name="Path 123" d="M-2474.675,2950.075c-.278.045-.567.216-.885-.123C-2475.184,2949.83-2474.91,2949.731-2474.675,2950.075Z" transform="translate(2639.962 -2915.837)" fill="#fff"/>
      <path id="Path_124" data-name="Path 124" d="M-2537.431,2950.126h.918C-2536.665,2950.494-2536.844,2950.516-2537.431,2950.126Z" transform="translate(2694.809 -2916.092)" fill="#fff"/>
      <path id="Path_125" data-name="Path 125" d="M-2442.207,2950.07c.281-.269.567-.087.9-.147C-2441.6,2950.265-2441.646,2950.271-2442.207,2950.07Z" transform="translate(2610.395 -2915.908)" fill="#fff"/>
      <path id="Path_126" data-name="Path 126" d="M-2408.018,2950.162l-.765-.046a.561.561,0,0,1,.8-.164Z" transform="translate(2580.766 -2915.844)" fill="#fff"/>
      <path id="Path_127" data-name="Path 127" d="M-2504.827,3089.068l.769.053c-.278.3-.548.159-.818.21Z" transform="translate(2665.95 -3039.261)" fill="#fff"/>
      <path id="Path_128" data-name="Path 128" d="M-2471.485,3089.4h.848C-2470.987,3089.623-2470.987,3089.623-2471.485,3089.4Z" transform="translate(2636.35 -3039.551)" fill="#fff"/>
      <path id="Path_129" data-name="Path 129" d="M-2405.6,3088.8h-.9c.332-.383.635-.1.881-.292Z" transform="translate(2578.742 -3038.764)" fill="#fff"/>
      <path id="Path_130" data-name="Path 130" d="M-2372.779,3089.552h.795c-.26.313-.533.227-.8.166C-2372.786,3089.662-2372.783,3089.607-2372.779,3089.552Z" transform="translate(2548.858 -3039.689)" fill="#fff"/>
      <path id="Path_131" data-name="Path 131" d="M-2338.749,3089.17l-.783.048a.58.58,0,0,1,.767-.23C-2338.76,3089.049-2338.754,3089.109-2338.749,3089.17Z" transform="translate(2519.376 -3039.139)" fill="#fff"/>
      <path id="Path_132" data-name="Path 132" d="M-2570.516,3089.659h.779c0,.047,0,.094,0,.141h-.771C-2570.51,3089.753-2570.513,3089.706-2570.516,3089.659Z" transform="translate(2724.138 -3039.785)" fill="#fff"/>
      <path id="Path_133" data-name="Path 133" d="M-2537.378,3089.509h.833C-2536.95,3089.721-2536.95,3089.721-2537.378,3089.509Z" transform="translate(2694.762 -3039.652)" fill="#fff"/>
      <path id="Path_134" data-name="Path 134" d="M-2438.539,3089.767h.773c0,.046,0,.093,0,.139h-.788Z" transform="translate(2607.159 -3039.881)" fill="#fff"/>
      <path id="Path_135" data-name="Path 135" d="M-3645.107,2738.9c-.074.618-.1,1.189-.214,1.74a5.359,5.359,0,0,1-5.568,4.163,5.322,5.322,0,0,1-4.955-5.138,10.367,10.367,0,0,1,.138-2.446,5.308,5.308,0,0,1,5.294-4.077,5.371,5.371,0,0,1,5.154,4.374C-3645.173,2737.988-3645.153,2738.471-3645.107,2738.9Z" transform="translate(3686.263 -2723.739)" fill="#fff"/>
      <path id="Path_136" data-name="Path 136" d="M-3217.555,3816.842h15.5c-.33,2.838-3.715,5.577-7.048,5.788C-3213.04,3822.879-3217.24,3820.061-3217.555,3816.842Z" transform="translate(3297.721 -3684.414)" fill="#fff"/>
      <path id="Path_137" data-name="Path 137" d="M-3389.9,3816.793c-.382,2.594-3.508,5.751-7.746,5.785-3.906.031-7.231-2.808-7.812-5.739C-3404.862,3816.637-3390.794,3816.6-3389.9,3816.793Z" transform="translate(3464.294 -3684.256)" fill="#fff"/>
      <path id="Path_138" data-name="Path 138" d="M-2409.3,2987.392a15.066,15.066,0,0,1,.516-2.218,2.5,2.5,0,0,1,2.5-1.8,2.57,2.57,0,0,1,2.5,1.818,6.826,6.826,0,0,1,.083,4.814,2.657,2.657,0,0,1-2.819,1.979,2.582,2.582,0,0,1-2.138-1.463A6.618,6.618,0,0,1-2409.3,2987.392Z" transform="translate(2581.224 -2945.565)" fill="#fff"/>
      <path id="Path_139" data-name="Path 139" d="M-2597.868,3770.633c.423-.053.8-.164.859.332.039.333-.245.41-.51.4C-2598.011,3771.338-2597.88,3770.995-2597.868,3770.633Z" transform="translate(2748.406 -3643.407)" fill="#fff"/>
      <path id="Path_140" data-name="Path 140" d="M-2716.494,3771.755a2.074,2.074,0,0,1-.089.458.686.686,0,0,1-.724.472c-.513-.016-.784-.338-.807-.984-.024-.689.239-1.1.735-1.144C-2716.819,3770.506-2716.493,3770.9-2716.494,3771.755Z" transform="translate(2854.981 -3643.379)" fill="#fff"/>
      <path id="Path_141" data-name="Path 141" d="M-2269.571,3771.713a2.433,2.433,0,0,1-.136.59.762.762,0,0,1-1.32.051,1.389,1.389,0,0,1-.063-1.3.723.723,0,0,1,.8-.485.708.708,0,0,1,.649.573A3.943,3.943,0,0,1-2269.571,3771.713Z" transform="translate(2458.821 -3643.389)" fill="#fff"/>
      <path id="Path_142" data-name="Path 142" d="M-2707.408,2865.719V2863.8a.828.828,0,0,1,1.078.288,1.093,1.093,0,0,1,.063,1.209A.9.9,0,0,1-2707.408,2865.719Z" transform="translate(2845.489 -2839.486)" fill="#fff"/>
      <path id="Path_143" data-name="Path 143" d="M-2404.013,3776.155l-.6.03.286-.87Z" transform="translate(2577.071 -3647.601)" fill="#fff"/>
      <path id="Path_144" data-name="Path 144" d="M-2330.027,3776.7c-.571-.157-.571-.157-.262-.838Z" transform="translate(2511.366 -3648.082)" fill="#fff"/>
      <path id="Path_145" data-name="Path 145" d="M-2553.252,2870.042h-.556l.2-.744.15.006Z" transform="translate(2709.327 -2844.439)" fill="#fff"/>
      <path id="Path_146" data-name="Path 146" d="M-2749.207,3771.778v-.789a1.591,1.591,0,0,1,.607.057.524.524,0,0,1,.224.449C-2748.487,3771.845-2748.792,3771.888-2749.207,3771.778Z" transform="translate(2882.543 -3643.766)" fill="#fff"/>
      <path id="Path_147" data-name="Path 147" d="M-2452.606,2863.791c.476-.106.865-.141.89.331s-.367.482-.808.458C-2452.551,2864.325-2452.575,2864.09-2452.606,2863.791Z" transform="translate(2619.614 -2839.499)" fill="#fff"/>
      <path id="Path_148" data-name="Path 148" d="M-3164.164,2841.975h-.914a.72.72,0,0,1,.073-1,.691.691,0,0,1,.621-.049C-3163.974,2841.135-3164.04,2841.519-3164.164,2841.975Z" transform="translate(3251.346 -2819.248)" fill="#fff"/>
      <path id="Path_149" data-name="Path 149" d="M-2154.54,2865.469h-1.077a.766.766,0,0,1,.137-1.044.686.686,0,0,1,.6-.052C-2154.422,2864.563-2154.494,2864.98-2154.54,2865.469Z" transform="translate(2356.468 -2840.036)" fill="#fff"/>
      <path id="Path_150" data-name="Path 150" d="M-2997.792,3825.487h-1a.754.754,0,0,1,.06-1,.707.707,0,0,1,.617-.056C-2997.672,3824.612-2997.8,3825.018-2997.792,3825.487Z" transform="translate(3103.932 -3691.103)" fill="#fff"/>
      <path id="Path_151" data-name="Path 151" d="M-2998.583,3854.884a4.334,4.334,0,0,1-.792-.232.951.951,0,0,1-.518-1.065.982.982,0,0,1,.812-.867,3.158,3.158,0,0,1,.925-.042c.747.07,1.1.466,1.058,1.15-.034.612-.421.955-1.132,1-.112.007-.226,0-.338,0Z" transform="translate(3104.783 -3716.167)" fill="#fff"/>
      <path id="Path_152" data-name="Path 152" d="M-2179.94,3071.042a3.718,3.718,0,0,1,.229-.7.943.943,0,0,1,1.01-.453.853.853,0,0,1,.835.6,2.952,2.952,0,0,1,.07,1.225.972.972,0,0,1-1.154.852,1.074,1.074,0,0,1-.962-1.007C-2179.929,3071.451-2179.925,3071.338-2179.94,3071.042Z" transform="translate(2377.902 -3022.256)" fill="#fff"/>
      <path id="Path_153" data-name="Path 153" d="M-3102.806,2785.516c-.044-.692-.068-1.324.556-1.7a1.418,1.418,0,0,1,1.528,0c.6.38.624,1,.569,1.7Z" transform="translate(3196.016 -2768.465)" fill="#fff"/>
      <path id="Path_154" data-name="Path 154" d="M-2703.165,2785.146a.714.714,0,0,1-.663-.534c-.019-.4.381-.918.718-.907a.609.609,0,0,1,.6.592A.81.81,0,0,1-2703.165,2785.146Z" transform="translate(2842.315 -2768.564)" fill="#fff"/>
      <path id="Path_155" data-name="Path 155" d="M-2717.309,2784.273c.087.1.319.245.368.439a.747.747,0,0,1-.614.776c-.36-.03-.441-.3-.439-.6C-2717.991,2784.512-2717.772,2784.271-2717.309,2784.273Z" transform="translate(2854.873 -2769.067)" fill="#fff"/>
      <path id="Path_156" data-name="Path 156" d="M-2668.818,3809.3h-2.517a1.447,1.447,0,0,1,.486-1.7,1.417,1.417,0,0,1,1.523-.031C-2668.675,3807.936-2668.743,3808.577-2668.818,3809.3Z" transform="translate(2813.579 -3676.01)" fill="#fff"/>
      <path id="Path_157" data-name="Path 157" d="M-2736.806,3805.349h-2.467a1.417,1.417,0,0,1,.37-1.645,1.487,1.487,0,0,1,1.605-.052A1.44,1.44,0,0,1-2736.806,3805.349Z" transform="translate(2873.829 -3672.535)" fill="#fff"/>
      <path id="Path_158" data-name="Path 158" d="M-3158.154,3137.062a7,7,0,0,1,1.083.327c.072.034.081.4,0,.53-.251.4-.648.371-1.079.258Z" transform="translate(3245.064 -3081.806)" fill="#fff"/>
      <path id="Path_159" data-name="Path 159" d="M-2932.9,3879.808h-1.066c-.133-.409-.207-.805.148-1.089a.691.691,0,0,1,.622-.037C-2932.79,3878.9-2932.768,3879.3-2932.9,3879.808Z" transform="translate(3046.421 -3739.183)" fill="#fff"/>
      <path id="Path_160" data-name="Path 160" d="M-2841.54,2783.563c.268.027.581.035.883.094a.609.609,0,0,1,.523.585.541.541,0,0,1-.478.607,12.783,12.783,0,0,1-1.847,0c-.311-.021-.471-.278-.466-.607a.57.57,0,0,1,.5-.59C-2842.149,2783.6-2841.864,2783.6-2841.54,2783.563Z" transform="translate(2965.621 -2768.438)" fill="#fff"/>
      <path id="Path_161" data-name="Path 161" d="M-2780.253,2783.979a.961.961,0,0,1-.108,1.243.612.612,0,0,1-.852-.038.65.65,0,0,1-.16-.847C-2781.139,2783.869-2780.713,2783.88-2780.253,2783.979Z" transform="translate(2911.136 -2768.758)" fill="#fff"/>
      <path id="Path_162" data-name="Path 162" d="M-2154.391,2785.475c-.309-.034-.621-.055-.927-.106a.574.574,0,0,1-.529-.568.566.566,0,0,1,.532-.652,10.651,10.651,0,0,1,1.774.016.541.541,0,0,1,.488.6.573.573,0,0,1-.493.6C-2153.822,2785.419-2154.106,2785.438-2154.391,2785.475Z" transform="translate(2356.546 -2768.931)" fill="#fff"/>
      <path id="Path_163" data-name="Path 163" d="M-2536.193,2784.291c-.32-.668-.321-.994-.019-1.27a.666.666,0,0,1,.85-.082.632.632,0,0,1,.306.793C-2535.225,2784.272-2535.684,2784.294-2536.193,2784.291Z" transform="translate(2693.926 -2767.783)" fill="#fff"/>
      <path id="Path_164" data-name="Path 164" d="M-2413.705,3883.423l1.172-.394v.961l-1.2-.379Q-2413.717,3883.517-2413.705,3883.423Z" transform="translate(2585.15 -3743.087)" fill="#fff"/>
      <path id="Path_165" data-name="Path 165" d="M-2477.159,3882.892v.991l-1.239-.4-.007-.174Z" transform="translate(2642.484 -3742.965)" fill="#fff"/>
      <path id="Path_166" data-name="Path 166" d="M-2286.646,3882.933v1l-1.2-.408q-.013-.086-.025-.171Z" transform="translate(2473.58 -3743.002)" fill="#fff"/>
      <path id="Path_167" data-name="Path 167" d="M-3160.573,2871.646v.97l-1.2-.382q0-.078,0-.155Z" transform="translate(3248.275 -2846.522)" fill="#fff"/>
      <path id="Path_168" data-name="Path 168" d="M-2215.548,3883.418l1.168-.411v.964l-1.142-.359Z" transform="translate(2409.468 -3743.067)" fill="#fff"/>
      <path id="Path_169" data-name="Path 169" d="M-2347.813,3884.137l-1.172-.432-.03-.148,1.2-.406Z" transform="translate(2527.783 -3743.195)" fill="#fff"/>
      <path id="Path_170" data-name="Path 170" d="M-2157.121,3879.113v.938l-1.18-.342c-.009-.052-.017-.1-.025-.154Z" transform="translate(2358.742 -3739.615)" fill="#fff"/>
      <path id="Path_171" data-name="Path 171" d="M-2481.014,3852.742a3.859,3.859,0,0,1-.956-.25.8.8,0,0,1-.328-.6.663.663,0,0,1,.378-.477,2.809,2.809,0,0,1,1.972-.006.732.732,0,0,1,.386.552.74.74,0,0,1-.372.561A5.116,5.116,0,0,1-2481.014,3852.742Z" transform="translate(2645.935 -3714.901)" fill="#fff"/>
      <path id="Path_172" data-name="Path 172" d="M-2213.351,3855.627v1.016l-1.054-.91.066-.168Z" transform="translate(2408.455 -3718.74)" fill="#fff"/>
      <path id="Path_173" data-name="Path 173" d="M-2412.541,2787.768h1.009v1.014l-1.078-.862Z" transform="translate(2584.158 -2772.166)" fill="#fff"/>
    </g>
  </g>
</svg>
