<svg xmlns="http://www.w3.org/2000/svg" width="13.467" height="14.578" viewBox="0 0 13.467 14.578">
  <g id="KGCRen" transform="translate(-1.785 -1100.304)">
    <g id="Group_2" data-name="Group 2" transform="translate(1.785 1100.304)">
      <path id="Path_35" data-name="Path 35" d="M12.923,1114.881a1.335,1.335,0,0,0,.786-.322,9.807,9.807,0,0,0,1.13-.987,1.564,1.564,0,0,0-.509-2.485c-.8-.344-1.627-.605-2.443-.9a.9.9,0,0,0-.884.176c-.3.225-.594.463-.88.708s-.422.288-.752.068c-.4-.27-.8-.551-1.181-.855a10.341,10.341,0,0,1-3.021-3.8c-.231-.507-.2-.6.2-.981a9.3,9.3,0,0,0,.829-.864.764.764,0,0,0,.17-.536c-.142-.809-.332-1.61-.5-2.415a1.722,1.722,0,0,0-1.208-1.289,1.2,1.2,0,0,0-1.185.132,10.847,10.847,0,0,0-.972.778A1.956,1.956,0,0,0,1.793,1103a16.129,16.129,0,0,0,.177,1.824,12.13,12.13,0,0,0,7.945,9.527A8.6,8.6,0,0,0,12.923,1114.881Z" transform="translate(-1.785 -1100.304)" fill="#8400ff"/>
      <path id="Path_36" data-name="Path 36" d="M12.923,1114.881a8.6,8.6,0,0,1-3.008-.528,12.13,12.13,0,0,1-7.945-9.527A16.129,16.129,0,0,1,1.793,1103a1.956,1.956,0,0,1,.711-1.691,10.847,10.847,0,0,1,.972-.778,1.2,1.2,0,0,1,1.185-.132,1.722,1.722,0,0,1,1.208,1.289c.165.805.355,1.606.5,2.415a.764.764,0,0,1-.17.536,9.3,9.3,0,0,1-.829.864c-.4.383-.428.474-.2.981a10.341,10.341,0,0,0,3.021,3.8c.379.3.777.585,1.181.855.33.221.455.188.752-.068s.578-.483.88-.708a.9.9,0,0,1,.884-.176c.816.3,1.648.557,2.443.9a1.564,1.564,0,0,1,.509,2.485,9.807,9.807,0,0,1-1.13.987A1.335,1.335,0,0,1,12.923,1114.881Z" transform="translate(-1.785 -1100.304)" fill="#8400ff"/>
    </g>
  </g>
</svg>
