<svg xmlns="http://www.w3.org/2000/svg" width="253.549" height="183.312" viewBox="0 0 253.549 183.312">
  <g id="ieV4Nx" transform="translate(675.975 -1419.135) rotate(13)" opacity="0.8">
    <g id="Group_5" data-name="Group 5" transform="translate(-309.765 1527.979)">
      <path id="Path_96" data-name="Path 96" d="M-287.021,1584.916c1.023-.115,1.791-.2,2.561-.29a149.891,149.891,0,0,1,23.8-.625,218.265,218.265,0,0,1,30.368,3.256c5.3.985,10.585,2.048,15.426,4.671a40.523,40.523,0,0,0,7.273,3.122,32.368,32.368,0,0,0,7.348,1.342c3.307.225,6.642.113,9.963.048a30.489,30.489,0,0,0,13.96-4.148,44.547,44.547,0,0,1,11.869-4.193,195.553,195.553,0,0,1,27.292-3.678,179.448,179.448,0,0,1,23.7-.395c2.926.166,5.839.523,8.76.789.263.025.534,0,.975,0-.838-.967-1.573-1.825-2.32-2.673q-9.286-10.551-18.577-21.1-7.631-8.649-15.267-17.294c-1.85-2.1-4.36-2.628-6.945-2.9a36.3,36.3,0,0,0-12.542,1.122,19.758,19.758,0,0,1-4.424.62,4.6,4.6,0,0,1-4.349-3.122,8.868,8.868,0,0,1,3.219-10.264,9.887,9.887,0,0,1,4.945-1.2c11.815-.454,21.692,3.906,29.719,12.382,4.054,4.279,7.673,8.967,11.5,13.458q9.987,11.718,19.984,23.423,6.093,7.145,12.169,14.3a26.73,26.73,0,0,1,4.7,7.133,19.977,19.977,0,0,1,.821,10.468,127.956,127.956,0,0,1-8.148,31.67A54.681,54.681,0,0,1-98,1655.889c-2.956,3.425-6.395,6.142-10.972,7.047a13.9,13.9,0,0,1-2.666.263q-17.928.024-35.858,0a34.1,34.1,0,0,1-15.055-3.3,27.531,27.531,0,0,1-12.167-11.847c-4.113-7.4-6.76-15.334-8.983-23.458-1.181-4.325-2.381-8.615-2.188-13.155a1.388,1.388,0,0,0-.113-.354h-18.61c-.091,1.552-.086,3.12-.3,4.655a39.235,39.235,0,0,1-1.122,5.664c-1.721,5.78-3.369,11.592-5.418,17.259a52.066,52.066,0,0,1-6.8,13.1,26.839,26.839,0,0,1-17.192,10.607,44.25,44.25,0,0,1-8.094.8c-11.377.089-22.757-.043-34.135.075a17.7,17.7,0,0,1-13.007-5.337,44.816,44.816,0,0,1-9.007-13.358c-4.725-9.963-7.4-20.54-9.192-31.362a74.407,74.407,0,0,1-.864-7.986c-.258-4.561,1.5-8.465,4.368-11.89q9.052-10.808,18.18-21.557,10.559-12.431,21.192-24.8a104.916,104.916,0,0,1,7.732-8.607c6.843-6.381,14.921-10.1,24.422-10.271a31.619,31.619,0,0,1,5.458.182c4.04.642,6.749,4.532,6.376,8.862-.371,4.284-3.216,6.368-7.439,5.326a43.041,43.041,0,0,0-10.126-1.686,42.61,42.61,0,0,0-6.191.4,8.768,8.768,0,0,0-5.463,3.1c-7.67,8.782-15.428,17.488-23.147,26.226q-6.073,6.874-12.118,13.772C-286.612,1584.39-286.714,1584.533-287.021,1584.916Zm27.7,73.324c4.685,0,9.372.086,14.057-.035a43.318,43.318,0,0,0,7.444-.784,23.613,23.613,0,0,0,14.016-8.3,39.221,39.221,0,0,0,6.078-11.05c2.03-5.364,3.589-10.913,5.286-16.4a26.406,26.406,0,0,0,1.058-10.918c-.91-7.917-4.687-13.7-12.387-16.489a75.335,75.335,0,0,0-15.141-3.355,208.266,208.266,0,0,0-23.614-2.054c-8.671-.236-17.308-.027-25.82,1.853-2.985.657-5.965,1.511-8.3,3.546-4.921,4.288-7.364,9.595-6.371,16.3a121.765,121.765,0,0,0,5.9,24.763c2.328,6.26,5.093,12.293,9.667,17.294,3.307,3.619,7.262,5.769,12.344,5.654C-269.847,1658.144-264.585,1658.238-259.324,1658.241Zm128.082-.131v.129c5.3,0,10.6-.091,15.89.025,5.052.11,8.964-2.086,12.236-5.665,4.55-4.972,7.3-10.974,9.63-17.2a115.8,115.8,0,0,0,5.713-23.38c.421-2.8.787-5.654-.056-8.414-1.882-6.142-5.713-10.47-12.048-12.269-8.207-2.33-16.639-2.682-25.082-2.534-5.788.1-11.576.54-17.348,1.02a133.289,133.289,0,0,0-19.592,3,27.576,27.576,0,0,0-9.063,3.458c-5.09,3.348-7.469,8.29-8.215,14.175a30.742,30.742,0,0,0,1.409,12.691c1.678,5.683,3.031,11.487,5.737,16.805a56.217,56.217,0,0,0,5.162,8.988c4.575,5.93,11.031,8.69,18.352,9.1C-142.775,1658.365-137,1658.109-131.242,1658.109Z" transform="translate(309.765 -1527.979)" fill="#fdfdfd"/>
    </g>
  </g>
</svg>
