<svg xmlns="http://www.w3.org/2000/svg" width="255.384" height="265.901" viewBox="0 0 255.384 265.901">
  <g id="Group_4" data-name="Group 4" transform="translate(-17.263 27.767) rotate(-7)" opacity="0.8">
    <path id="Path_92" data-name="Path 92" d="M13.914,0,11.305,22.611,0,37.394v4.348H86.963V38.264L75.658,23.48,73.049,0Z" transform="translate(79.137 167.742)" fill="#fff"/>
    <path id="Path_93" data-name="Path 93" d="M0,0H210.451V13.044s-.87,6.088-5.218,6.088H6.087S0,19.132,0,14.784Z" transform="translate(17.393 145.132)" fill="#fff"/>
    <path id="Path_94" data-name="Path 94" d="M32.176,0,0,20v5.218H245.236V20L213.06,0Z" transform="translate(0 214.703)" fill="#fff"/>
    <path id="Path_95" data-name="Path 95" d="M206.1.773C201.755-.966,6.957.773,6.957.773S.87,1.643.87,6.861,0,141.654,0,141.654H210.451V6.861A6.863,6.863,0,0,0,206.1.773Zm-6.087,131.314H8.7V11.209H200.015Z" transform="translate(17.393 0)" fill="#fff"/>
    <rect id="Rectangle_29" data-name="Rectangle 29" width="27.173" height="6.786" transform="translate(38.601 21.644)" fill="#fff"/>
    <rect id="Rectangle_30" data-name="Rectangle 30" width="27.173" height="6.786" transform="translate(68.585 21.644)" fill="#fff"/>
    <rect id="Rectangle_31" data-name="Rectangle 31" width="57.157" height="6.786" transform="translate(38.601 32.955)" fill="#fff"/>
    <rect id="Rectangle_32" data-name="Rectangle 32" width="47.787" height="6.786" transform="translate(98.568 32.955)" fill="#fff"/>
    <rect id="Rectangle_33" data-name="Rectangle 33" width="12.181" height="6.786" transform="translate(98.568 21.644)" fill="#fff"/>
    <rect id="Rectangle_34" data-name="Rectangle 34" width="12.181" height="6.786" transform="translate(113.56 21.644)" fill="#fff"/>
    <rect id="Rectangle_35" data-name="Rectangle 35" width="14.992" height="6.786" transform="translate(113.56 51.052) rotate(180)" fill="#fff"/>
    <rect id="Rectangle_36" data-name="Rectangle 36" width="27.173" height="6.786" transform="translate(95.757 51.052) rotate(180)" fill="#fff"/>
    <rect id="Rectangle_37" data-name="Rectangle 37" width="12.181" height="6.786" transform="translate(65.774 51.052) rotate(180)" fill="#fff"/>
    <rect id="Rectangle_38" data-name="Rectangle 38" width="16.866" height="6.786" transform="translate(50.782 51.052) rotate(180)" fill="#fff"/>
    <rect id="Rectangle_39" data-name="Rectangle 39" width="44.976" height="6.786" transform="translate(113.56 63.494) rotate(180)" fill="#fff"/>
    <rect id="Rectangle_40" data-name="Rectangle 40" width="27.173" height="6.786" transform="translate(65.774 63.494) rotate(180)" fill="#fff"/>
    <rect id="Rectangle_41" data-name="Rectangle 41" width="27.173" height="6.786" transform="translate(143.544 63.494) rotate(180)" fill="#fff"/>
    <rect id="Rectangle_42" data-name="Rectangle 42" width="44.976" height="6.786" transform="translate(83.577 74.804) rotate(180)" fill="#fff"/>
    <rect id="Rectangle_43" data-name="Rectangle 43" width="44.976" height="6.786" transform="translate(131.363 74.804) rotate(180)" fill="#fff"/>
    <rect id="Rectangle_44" data-name="Rectangle 44" width="44.976" height="6.786" transform="translate(89.199 86.115) rotate(180)" fill="#fff"/>
    <rect id="Rectangle_45" data-name="Rectangle 45" width="44.976" height="6.786" transform="translate(136.985 86.115) rotate(180)" fill="#fff"/>
    <rect id="Rectangle_46" data-name="Rectangle 46" width="23.425" height="6.786" transform="translate(133.237 97.426) rotate(180)" fill="#fff"/>
    <rect id="Rectangle_47" data-name="Rectangle 47" width="27.173" height="6.786" transform="translate(107.001 97.426) rotate(180)" fill="#fff"/>
    <rect id="Rectangle_48" data-name="Rectangle 48" width="12.181" height="6.786" transform="translate(77.018 97.426) rotate(180)" fill="#fff"/>
    <rect id="Rectangle_49" data-name="Rectangle 49" width="12.181" height="6.786" transform="translate(62.026 97.426) rotate(180)" fill="#fff"/>
    <rect id="Rectangle_50" data-name="Rectangle 50" width="14.992" height="6.786" transform="translate(120.119 108.737) rotate(180)" fill="#fff"/>
    <rect id="Rectangle_51" data-name="Rectangle 51" width="27.173" height="6.786" transform="translate(102.316 108.737) rotate(180)" fill="#fff"/>
    <rect id="Rectangle_52" data-name="Rectangle 52" width="12.181" height="6.786" transform="translate(72.333 108.737) rotate(180)" fill="#fff"/>
    <rect id="Rectangle_53" data-name="Rectangle 53" width="16.866" height="6.786" transform="translate(57.341 108.737) rotate(180)" fill="#fff"/>
    <rect id="Rectangle_54" data-name="Rectangle 54" width="14.992" height="6.786" transform="translate(161.347 63.494) rotate(180)" fill="#fff"/>
    <rect id="Rectangle_55" data-name="Rectangle 55" width="27.173" height="6.786" transform="translate(139.796 79.329)" fill="#fff"/>
    <rect id="Rectangle_56" data-name="Rectangle 56" width="25.299" height="6.786" transform="translate(132.3 113.261)" fill="#fff"/>
    <rect id="Rectangle_57" data-name="Rectangle 57" width="44.976" height="6.786" transform="translate(84.514 113.261)" fill="#fff"/>
    <rect id="Rectangle_58" data-name="Rectangle 58" width="27.173" height="6.786" transform="translate(81.703 120.047) rotate(180)" fill="#fff"/>
  </g>
</svg>
