<svg xmlns="http://www.w3.org/2000/svg" width="48.106" height="48.105" viewBox="0 0 48.106 48.105">
  <path id="Path_7" data-name="Path 7" d="M624.4,1986.435a24.053,24.053,0,1,1,24.066,24.079A24.1,24.1,0,0,1,624.4,1986.435Zm24.034,15.636c2.649,0,5.3.087,7.946-.02a8.027,8.027,0,0,0,7.709-7.514c.195-5.386.191-10.791,0-16.177a7.972,7.972,0,0,0-7.59-7.471q-8.014-.217-16.039,0a8.033,8.033,0,0,0-7.656,7.578q-.218,8.012,0,16.033a8.112,8.112,0,0,0,7.684,7.556C643.129,2002.157,645.781,2002.071,648.429,2002.071Z" transform="translate(-624.395 -1962.409)" fill="#fff"/>
</svg>
