<svg xmlns="http://www.w3.org/2000/svg" width="292.253" height="56.601" viewBox="0 0 292.253 56.601">
  <g id="Group_13" data-name="Group 13" transform="translate(-1557.122 -8858.044)">
    <path id="Path_15" data-name="Path 15" d="M1622,515.052h10.935l7.938,16.674,4.493-16.674h11.584L1647.559,550h-10.384l-8.287-17.375L1624.2,550h-11.585Z" transform="translate(-55.489 8343.594)" fill="#fff"/>
    <path id="Path_16" data-name="Path 16" d="M1640.86,515.052h29.808l-2.6,9.585h-18.324l-.948,3.545h17.075l-2.246,8.437h-17.076l-1.048,3.8h18.571L1661.532,550h-30.056Z" transform="translate(-35.112 8343.594)" fill="#fff"/>
    <path id="Path_17" data-name="Path 17" d="M1651.228,515.1h11.98l.451,16.774L1673.793,515h10.087l1.148,16.876,9.435-16.774h12.283l-20.87,35.2h-10.186l-1.5-17.375L1663.409,550.3h-10.184Z" transform="translate(-13.777 8343.541)" fill="#fff"/>
    <path id="Path_18" data-name="Path 18" d="M1677.771,515.1h11.979l.452,16.774L1700.336,515h10.087l1.148,16.876,9.435-16.774h12.283l-20.87,35.2h-10.186l-1.5-17.375L1689.952,550.3h-10.186Z" transform="translate(14.893 8343.541)" fill="#8400ff" stroke="rgba(0,0,0,0)" stroke-width="1"/>
    <path id="Path_19" data-name="Path 19" d="M1722,514.932h11.584l5.29,35.2h-12.431l-.6-4.693h-12.231l-3.047,4.693h-12.73Zm3.195,22.216-.948-8.487-5.442,8.487Z" transform="translate(36.563 8343.464)" fill="#8400ff"/>
    <path id="Path_20" data-name="Path 20" d="M1719.026,515.052h12.832l1.5,19.62,12.083-19.62h13.13l-23.614,35.2h-11.185Z" transform="translate(59.454 8343.594)" fill="#8400ff"/>
    <path id="Path_21" data-name="Path 21" d="M1743.65,515.052h29.809l-2.6,9.585h-18.324l-.949,3.545h17.076l-2.246,8.437h-17.076l-1.048,3.8h18.571L1764.323,550h-30.056Z" transform="translate(75.916 8343.594)" fill="#8400ff"/>
    <path id="Path_22" data-name="Path 22" d="M1675.591,539.028c0-3.079,1.664-4.137,4.262-4.221l.333,1.518c-1.394.164-2.141.832-2.078,1.953h1.581v4.054h-4.1Z" transform="translate(12.538 8364.932)" fill="#8400ff"/>
    <path id="Path_23" data-name="Path 23" d="M1681.663,539.549h-3.428v-3.293h10.746v3.293h-3.426V547.9h-3.892Z" transform="translate(15.394 8366.496)" fill="#fff"/>
    <path id="Path_24" data-name="Path 24" d="M1684.436,536.256h9.928v3.193h-6.1v1.182h5.689v2.81h-5.689v1.265h6.187v3.2h-10.012Z" transform="translate(22.092 8366.496)" fill="#fff"/>
    <path id="Path_25" data-name="Path 25" d="M1690.156,542.239v-.031a6.015,6.015,0,0,1,6.186-6.072,5.713,5.713,0,0,1,5.273,3.027l-3.212,1.88a2.257,2.257,0,0,0-2.111-1.414,2.317,2.317,0,0,0-2.178,2.546v.033a2.3,2.3,0,0,0,2.178,2.577,2.382,2.382,0,0,0,2.195-1.464l3.212,1.814a6.168,6.168,0,0,1-11.543-2.9Z" transform="translate(28.27 8366.367)" fill="#fff"/>
    <path id="Path_26" data-name="Path 26" d="M1696.676,536.256h3.892v4.108h3.559v-4.108h3.892V547.9h-3.892v-4.177h-3.559V547.9h-3.892Z" transform="translate(35.313 8366.496)" fill="#fff"/>
    <path id="Path_27" data-name="Path 27" d="M1706.02,536.256h9.745v3.326h-5.853v1.481h5.439v3.024h-5.439V547.9h-3.892Z" transform="translate(45.406 8366.496)" fill="#fff"/>
    <path id="Path_28" data-name="Path 28" d="M1711.629,542.239v-.031a6.36,6.36,0,0,1,12.705-.033v.033a6.36,6.36,0,0,1-12.705.031Zm8.78,0v-.031a2.49,2.49,0,0,0-2.444-2.629,2.455,2.455,0,0,0-2.411,2.6v.033a2.488,2.488,0,0,0,2.442,2.627A2.456,2.456,0,0,0,1720.409,542.239Z" transform="translate(51.464 8366.367)" fill="#fff"/>
    <path id="Path_29" data-name="Path 29" d="M1718.859,536.256h5.691a5.659,5.659,0,0,1,4.189,1.331,3.652,3.652,0,0,1,1.065,2.76v.033a3.766,3.766,0,0,1-2.295,3.559l2.71,3.961h-4.441l-2.194-3.328h-.834V547.9h-3.892Zm5.572,5.537c.932,0,1.5-.414,1.5-1.129v-.033c0-.749-.581-1.115-1.479-1.115h-1.7v2.278Z" transform="translate(59.273 8366.496)" fill="#fff"/>
    <path id="Path_30" data-name="Path 30" d="M1727.828,536.256h3.89v4.358l3.312-4.358h4.524l-4.058,5.057,4.141,6.588h-4.643l-2.276-3.694-1,1.215v2.48h-3.89Z" transform="translate(68.961 8366.496)" fill="#fff"/>
    <path id="Path_31" data-name="Path 31" d="M1734.292,536.256h3.892V547.9h-3.892Z" transform="translate(75.943 8366.496)" fill="#fff"/>
    <path id="Path_32" data-name="Path 32" d="M1737.428,536.256h4.458c4.624,0,6.935,2.28,6.935,5.723v.031c0,3.445-2.361,5.891-7.068,5.891h-4.324Zm4.541,8.25c1.781,0,2.929-.732,2.929-2.411v-.033c0-1.681-1.148-2.413-2.929-2.413h-.649v4.857Z" transform="translate(79.33 8366.496)" fill="#fff"/>
    <path id="Path_33" data-name="Path 33" d="M1743.484,546.266l2.078-2.479a6.674,6.674,0,0,0,4.075,1.365c.7,0,1-.183,1-.5v-.033c0-.331-.366-.514-1.614-.765-2.608-.532-4.905-1.281-4.905-3.742v-.033c0-2.211,1.729-3.925,4.938-3.925a8.058,8.058,0,0,1,5.257,1.6l-1.9,2.627a6.1,6.1,0,0,0-3.49-1.148c-.585,0-.85.2-.85.483v.033c0,.316.318.516,1.55.749,2.974.549,4.971,1.412,4.971,3.759v.035c0,2.442-2.014,3.94-5.14,3.94A9,9,0,0,1,1743.484,546.266Z" transform="translate(85.872 8366.384)" fill="#fff"/>
    <path id="Path_34" data-name="Path 34" d="M1749.777,540.864c1.394-.146,2.145-.83,2.08-1.953h-1.579v-4.054h4.094v3.305c0,3.077-1.662,4.138-4.26,4.221Z" transform="translate(92.669 8364.986)" fill="#8400ff"/>
  </g>
</svg>
