<svg xmlns="http://www.w3.org/2000/svg" width="17.389" height="11.876" viewBox="0 0 17.389 11.876">
  <g id="Dd5zuI" transform="translate(21.792 -1516.412)">
    <g id="Group_3" data-name="Group 3" transform="translate(-21.792 1516.412)">
      <path id="Path_37" data-name="Path 37" d="M-19.5,1517.386a1.842,1.842,0,0,1,1.773-.974q3.39.005,6.781,0,3.348,0,6.7,0a1.844,1.844,0,0,1,1.758.979c-.926.7-1.834,1.393-2.743,2.081q-2.24,1.7-4.482,3.389a1.865,1.865,0,0,1-2.576-.012q-3.4-2.581-6.807-5.15C-19.222,1517.606-19.342,1517.508-19.5,1517.386Z" transform="translate(19.693 -1516.412)" fill="#8400ff"/>
      <path id="Path_38" data-name="Path 38" d="M-1.491,1594.487a1.911,1.911,0,0,1-1.7.8q-6.073-.006-12.146,0c-.472,0-.944.008-1.416,0a1.845,1.845,0,0,1-1.547-.793l5.367-4.786c.986.625,1.746,1.59,3.041,1.585,1.279,0,2.03-.955,3.02-1.583Z" transform="translate(18.595 -1583.413)" fill="#8400ff"/>
      <path id="Path_39" data-name="Path 39" d="M-21.792,1547.742v-8.112l4.924,3.721Z" transform="translate(21.792 -1537.636)" fill="#8400ff"/>
      <path id="Path_40" data-name="Path 40" d="M123.427,1543.383l4.921-3.719v8.1Z" transform="translate(-110.958 -1537.667)" fill="#8400ff"/>
    </g>
  </g>
</svg>
