<svg xmlns="http://www.w3.org/2000/svg" width="223.793" height="182.054" viewBox="0 0 223.793 182.054">
  <g id="Group_7" data-name="Group 7" transform="matrix(0.438, -0.899, 0.899, 0.438, -11.645, 95.369)" opacity="0.8">
    <g id="jud36f" transform="translate(26.564 0)">
      <g id="Group_6" data-name="Group 6" transform="translate(0 0)">
        <path id="Path_97" data-name="Path 97" d="M59.953,118.983c-.91-1.819-1.836-3.63-2.743-5.45q-3.386-6.81-6.759-13.625Q44.107,87.1,37.769,74.295q-6.3-12.732-12.585-25.467-6.794-13.707-13.615-27.4Q6.717,11.642,1.888,1.849A13.345,13.345,0,0,0,.974.265C.869.11.514-.05.4.015A1.019,1.019,0,0,0,.012.625a1.152,1.152,0,0,0,.116.589C.649,2.729,1.164,4.245,1.711,5.751c1.611,4.433,3.252,8.857,4.853,13.295q5.693,15.778,11.361,31.564,3.946,10.976,7.89,21.954,4.794,13.362,9.576,26.724,3.91,10.9,7.837,21.783c.776,2.153,1.553,4.305,2.387,6.619,3.455-5.644,8.326-8.218,14.9-7.468C60.313,119.771,60.147,119.37,59.953,118.983ZM40.007,96.41a2.97,2.97,0,0,1-3.161-3.1,3.023,3.023,0,0,1,6.045.059A3.044,3.044,0,0,1,40.007,96.41ZM79.36.184c-.28.147-.647.226-.822.453a7.516,7.516,0,0,0-.7,1.3q-3.748,7.6-7.491,15.2-4.809,9.711-9.639,19.412Q55.8,46.459,50.912,56.379c-3.353,6.764-6.729,13.515-10.06,20.289a1.675,1.675,0,0,0,.009,1.28c1.114,2.371,2.291,4.713,3.45,7.063.951,1.924,1.905,3.847,2.956,5.966.363-1.035.658-1.883.961-2.727Q52,77.731,55.785,67.214,60.246,54.8,64.711,42.388t8.922-24.814c1.44-4,2.9-7.991,4.343-11.989.533-1.479,1.066-2.957,1.545-4.455C79.607.86,79.42.5,79.36.184ZM38.989,112.73q-2.317-6.539-4.666-13.069c-.665-1.861-1.338-3.719-2.055-5.712l-13,26.2c6.564-.7,11.381,1.864,14.769,7.313a1.091,1.091,0,0,0,.148-.187c1.635-4.544,3.276-9.087,4.887-13.641A1.488,1.488,0,0,0,38.989,112.73Z" fill="#fdfdfd"/>
        <path id="Path_98" data-name="Path 98" d="M59.953,118.983c-.91-1.819-1.836-3.63-2.743-5.45L50.451,99.907Q44.107,87.1,37.769,74.295q-6.3-12.732-12.585-25.467-6.794-13.707-13.615-27.4Q6.717,11.642,1.888,1.849A13.345,13.345,0,0,0,.974.265C.869.11.514-.05.4.015A1.019,1.019,0,0,0,.012.625a1.152,1.152,0,0,0,.116.589C.649,2.729,1.164,4.245,1.711,5.751c1.611,4.433,3.252,8.857,4.853,13.295q5.693,15.778,11.361,31.564,3.946,10.976,7.89,21.954,4.794,13.362,9.576,26.724,3.91,10.9,7.837,21.783c.776,2.153,1.553,4.305,2.387,6.619,3.455-5.644,8.326-8.218,14.9-7.468C60.313,119.771,60.147,119.37,59.953,118.983ZM40.007,96.41a2.97,2.97,0,0,1-3.161-3.1,3.023,3.023,0,0,1,6.045.059A3.044,3.044,0,0,1,40.007,96.41Z" fill="#fdfdfd"/>
        <path id="Path_99" data-name="Path 99" d="M6.537,90.792c-1.05-2.12-2-4.042-2.955-5.966-1.16-2.349-2.338-4.691-3.451-7.063a1.676,1.676,0,0,1-.008-1.281c3.331-6.774,6.707-13.525,10.059-20.289q4.91-9.907,9.8-19.826,4.809-9.711,9.638-19.412,3.759-7.593,7.491-15.2a7.528,7.528,0,0,1,.7-1.3c.175-.227.541-.307.821-.453.061.318.247.676.161.947-.477,1.5-1.011,2.976-1.544,4.455-1.443,4-2.9,7.989-4.343,11.988q-4.467,12.4-8.922,24.814T15.056,67.029Q11.276,77.546,7.5,88.065C7.195,88.909,6.9,89.758,6.537,90.792Z" transform="translate(40.729 0.184)" fill="#fdfdfd"/>
        <path id="Path_100" data-name="Path 100" d="M13,0c.718,1.992,1.39,3.85,2.056,5.711q2.34,6.533,4.666,13.07a1.492,1.492,0,0,1,.083.907c-1.612,4.553-3.252,9.1-4.888,13.641-.018.049-.066.086-.148.187C11.38,28.067,6.564,25.5,0,26.2Z" transform="translate(19.269 93.949)" fill="#fdfdfd"/>
      </g>
    </g>
    <path id="Path_101" data-name="Path 101" d="M59.527,7.094s-3.161-5.173-7.334-6.5a17.938,17.938,0,0,0-8.948,0l-6.566,13.4C.18,7.957-14.333,75.351,17.711,74.632s33.05-39.086,33.05-39.086L60.386,8.465ZM30.4,58.735A13.963,13.963,0,0,1,20.773,61.8a10.38,10.38,0,0,1-8.941-6.373A19.526,19.526,0,0,1,10.647,42.7a27.227,27.227,0,0,1,8.344-14.927,16.687,16.687,0,0,1,9.507-4.63A10.661,10.661,0,0,1,39.32,29.005a20.233,20.233,0,0,1,1.951,9.166A26.944,26.944,0,0,1,30.4,58.735Z" transform="translate(0 123.106)" fill="#fdfdfd"/>
    <path id="Path_102" data-name="Path 102" d="M23.707,13.991,17.142.592a17.919,17.919,0,0,0-8.948,0C4.021,1.921.859,7.094.859,7.094L0,8.465,9.625,35.546s1.006,38.367,33.05,39.085S60.206,7.956,23.707,13.991ZM47.318,56.977a10.533,10.533,0,0,1-11.933,4.441,18.922,18.922,0,0,1-10.01-6.689,26.667,26.667,0,0,1-6.514-18.449c.145-3.814,1.18-7.395,4-10.175a10.375,10.375,0,0,1,10.405-2.69c4.6,1.15,8.061,3.982,10.866,7.652a27.6,27.6,0,0,1,5.81,16.361C49.847,50.765,49.318,54.088,47.318,56.977Z" transform="translate(72.648 122.427)" fill="#fdfdfd"/>
  </g>
</svg>
