<svg xmlns="http://www.w3.org/2000/svg" width="228.625" height="239.541" viewBox="0 0 228.625 239.541">
  <g id="S83jwi" transform="matrix(0.755, -0.656, 0.656, 0.755, 3527.791, -4322.816)" opacity="0.8">
    <g id="Group_9" data-name="Group 9" transform="translate(-5546.083 1002.793)">
      <path id="Path_174" data-name="Path 174" d="M-5545.106,1147.746v-60.9c-1.484-5.454-.723-11.028-.81-16.55-.026-1.661,1.142-3.523.7-4.961-1.572-5.051-.319-10.141-.689-15.189-.075-1.014.644-2.062.774-3.122a17.612,17.612,0,0,0,.008-3.54c-.077-.96.558-2.158-.806-2.805-.16-.076-.1-.673-.1-1.029-.009-1.644-.045-3.291.014-4.933.029-.827-.443-1.84.767-2.376.2-.089.138-.856.139-1.31.009-4.163-.005-8.325.007-12.488a15.474,15.474,0,0,1,15.6-15.716q38.7-.068,77.4,0a15.431,15.431,0,0,1,15.7,15.761c.039,10.792-.572,21.626.194,32.364a174.089,174.089,0,0,1,.427,25.4c-1.1,14.649-.343,29.271-.563,43.9-.221,14.7-.048,29.4-.048,44.094,0,14.75.036,29.5-.02,44.249-.033,8.777-6.88,15.412-15.839,15.438-11.05.032-22.1.006-33.148.006l-43.323,0c-9.761,0-16.376-6.592-16.375-16.318Q-5545.106,1177.733-5545.106,1147.746Zm102.436-34.294q0-47.253,0-94.505c0-5.854-3.886-9.771-9.732-9.813-3.34-.024-6.681.03-10.021-.025-1.144-.019-1.517.413-1.56,1.523-.141,3.588-2.28,5.741-5.854,5.751q-20.967.058-41.933.005c-3.6-.008-5.755-2.121-5.9-5.7-.046-1.2-.481-1.6-1.673-1.581-3.288.061-6.578-.01-9.866.026a9.506,9.506,0,0,0-9.651,9.829q-.008,94.428,0,188.856c0,5.95,4.02,9.932,9.978,9.933q38.079,0,76.158,0c6.248,0,10.046-3.82,10.047-10.1Q-5442.672,1160.55-5442.67,1113.452Zm-48.169-101.135c1.792,0,3.588.07,5.372-.045.506-.033.978-.6,1.464-.93-.481-.324-.957-.918-1.446-.929q-5.372-.122-10.747,0c-.493.011-.975.6-1.462.915.482.331.947.914,1.448.946C-5494.427,1012.387-5492.63,1012.316-5490.839,1012.317Zm13.92-.635q0-.368-.005-.736c-.641-.429-1.25-1.14-1.931-1.218a1.342,1.342,0,0,0-1.507,1.667,2.268,2.268,0,0,0,1.539,1.47C-5478.208,1012.893-5477.555,1012.111-5476.919,1011.682Z" transform="translate(5546.083 -1002.793)" fill="#fff"/>
    </g>
  </g>
</svg>
