<svg xmlns="http://www.w3.org/2000/svg" width="48.077" height="48.049" viewBox="0 0 48.077 48.049">
  <path id="Path_6" data-name="Path 6" d="M460.273,1562.236a24.038,24.038,0,1,1-23.764-24.183A23.937,23.937,0,0,1,460.273,1562.236ZM421.7,1550.268c-1.624,3.4-.756,6.16,1.812,8.962l-2.877-.7c.161,3.215,2.042,5.1,4.623,6.55l-2.1.113a7.254,7.254,0,0,0,5.719,4.7c-1.92,1.541-2.316,1.67-8.375,2.757.681.39,1.2.726,1.747,1a18.3,18.3,0,0,0,26.231-13.287c.509-3.008,1.055-5.659,3.47-7.647.024-.02.01-.085.023-.23l-3.3.88,2.075-3.681a1.726,1.726,0,0,0-.987.368c-1.9,1.293-1.9,1.294-3.675-.067a6.568,6.568,0,0,0-10.041,2.513,22.628,22.628,0,0,0-.883,4.789C429.841,1557.075,425.493,1554.409,421.7,1550.268Z" transform="translate(-412.197 -1538.052)" fill="#fff"/>
</svg>
